<?xml version="1.0" encoding="UTF-8" standalone="no"?>
<svg
   width="1920"
   height="1080"
   viewBox="0 0 1920 1080"
   fill="none"
   version="1.1"
   id="svg39"
   sodipodi:docname="niceback-wavy.svg"
   inkscape:version="1.1.1 (3bf5ae0d25, 2021-09-20)"
   xmlns:inkscape="http://www.inkscape.org/namespaces/inkscape"
   xmlns:sodipodi="http://sodipodi.sourceforge.net/DTD/sodipodi-0.dtd"
   xmlns="http://www.w3.org/2000/svg"
   xmlns:svg="http://www.w3.org/2000/svg">
  <defs
     id="defs43">
    <inkscape:path-effect
       effect="powerstroke"
       id="path-effect2521"
       is_visible="true"
       lpeversion="1"
       offset_points="1,0.60686616"
       not_jump="false"
       sort_points="true"
       interpolator_type="CubicBezierJohan"
       interpolator_beta="0.2"
       start_linecap_type="zerowidth"
       linejoin_type="extrp_arc"
       miter_limit="4"
       scale_width="1"
       end_linecap_type="zerowidth" />
    <inkscape:path-effect
       effect="powerstroke"
       id="path-effect2517"
       is_visible="true"
       lpeversion="1"
       offset_points="1,0.60216942"
       not_jump="false"
       sort_points="true"
       interpolator_type="CubicBezierJohan"
       interpolator_beta="0.2"
       start_linecap_type="zerowidth"
       linejoin_type="extrp_arc"
       miter_limit="4"
       scale_width="1"
       end_linecap_type="zerowidth" />
    <inkscape:path-effect
       effect="powerstroke"
       id="path-effect2513"
       is_visible="true"
       lpeversion="1"
       offset_points="1,0.60833265"
       not_jump="false"
       sort_points="true"
       interpolator_type="CubicBezierJohan"
       interpolator_beta="0.2"
       start_linecap_type="zerowidth"
       linejoin_type="extrp_arc"
       miter_limit="4"
       scale_width="1"
       end_linecap_type="zerowidth" />
  </defs>
  <sodipodi:namedview
     id="namedview41"
     pagecolor="#505050"
     bordercolor="#eeeeee"
     borderopacity="1"
     inkscape:pageshadow="0"
     inkscape:pageopacity="0"
     inkscape:pagecheckerboard="0"
     showgrid="false"
     inkscape:snap-smooth-nodes="false"
     inkscape:snap-midpoints="false"
     inkscape:snap-intersection-paths="false"
     inkscape:object-paths="false"
     inkscape:zoom="0.54146047"
     inkscape:cx="1188.4524"
     inkscape:cy="375.83538"
     inkscape:window-width="1920"
     inkscape:window-height="1009"
     inkscape:window-x="1912"
     inkscape:window-y="-8"
     inkscape:window-maximized="1"
     inkscape:current-layer="svg39"
     inkscape:object-nodes="false" />
  <rect
     style="fill:#141414;fill-opacity:1;stroke-width:1.56491;stroke-linejoin:round;stroke-dasharray:18.779, 1.56491"
     id="rect877"
     width="1920"
     height="1111.3966"
     x="0"
     y="-16.621712" />
  <path
     id="rect29-0"
     style="fill:#141414;fill-opacity:1"
     d="M 1536 0 C 1536 0 1586 135 1586 270 C 1586 404.95919 1536 539.91797 1536 539.91797 C 1536 539.91797 1486 675 1486 810 C 1486 945 1536 1080 1536 1080 L 1920 1080 L 1920 540 L 1920 0 L 1536 0 z " />
  <path
     id="rect31"
     style="fill:#ff9505;fill-opacity:1;stroke:#000000;stroke-opacity:1;stroke-width:2;stroke-miterlimit:4;stroke-dasharray:none"
     d="M 378.4043 -16.621094 C 381.03697 -8.7375604 384 0 384 0 C 384 0 434 135 434 270 C 434 405 384 540 384 540 C 384 540 334 675 334 810 C 334 945 384 1080 384 1080 C 384 1080 386.84375 1088.4774 388.97461 1094.7754 L 772.97461 1094.7754 C 770.84375 1088.4774 768 1080 768 1080 C 768 1080 718 945 718 810 C 718 675 768 540 768 540 C 768 540 818 405 818 270 C 818 135 768 0 768 0 C 768 0 765.03697 -8.7375604 762.4043 -16.621094 L 378.4043 -16.621094 z " />
  <path
     id="rect33"
     style="fill:#ec4e20;fill-opacity:1;stroke:#000000;stroke-opacity:1;stroke-width:2;stroke-miterlimit:4;stroke-dasharray:none"
     d="M 763.07617 -14.621094 C 765.16698 -8.4481033 768 0 768 0 C 768 0 818 135 818 270 C 818 405 768 540 768 540 C 768 540 718 675 718 810 C 718 945 768 1080 768 1080 C 768 1080 770.84375 1088.4774 772.97461 1094.7754 L 1156.9746 1094.7754 C 1154.8437 1088.4774 1152 1080 1152 1080 C 1152 1080 1102 945 1102 810 C 1102 675 1152 540 1152 540 C 1152 540 1202 405 1202 270 C 1202 135 1152 0 1152 0 C 1152 0 1149.167 -8.4481033 1147.0762 -14.621094 L 763.07617 -14.621094 z " />
  <path
     id="rect35"
     style="fill:#016fb9;fill-opacity:1;stroke:#000000;stroke-opacity:1;stroke-width:2;stroke-miterlimit:4;stroke-dasharray:none"
     d="M 1147.0762 -14.621094 C 1149.167 -8.4481033 1152 0 1152 0 C 1152 0 1202 135 1202 270 C 1202 405 1152 540 1152 540 C 1152 540 1102 675 1102 810 C 1102 945 1152 1080 1152 1080 C 1152 1080 1154.972 1088.7519 1157.6484 1096.7754 L 1541.6484 1096.7754 C 1538.972 1088.7519 1536 1080 1536 1080 C 1536 1080 1486 945 1486 810 C 1486 675 1536 540 1536 540 C 1536 540 1586 404.95919 1586 270 C 1586 135 1536 0 1536 0 C 1536 0 1533.167 -8.4481033 1531.0762 -14.621094 L 1147.0762 -14.621094 z " />
  <path
     id="rect29"
     style="fill:#141414;fill-opacity:1"
     d="M 0 0 L 0 540 L 0 1080 L 384 1080 C 384 1080 334 945 334 810 C 334 675 384 540 384 540 C 384 540 434 405 434 270 C 434 135 384 0 384 0 L 0 0 z " />
</svg>
