<?xml version="1.0" encoding="UTF-8" standalone="no"?>
<svg
   width="1920"
   height="1080"
   viewBox="0 0 1920 1080"
   fill="none"
   version="1.1"
   id="svg39"
   sodipodi:docname="niceback-wavy.svg"
   inkscape:version="1.1 (c68e22c387, 2021-05-23)"
   xmlns:inkscape="http://www.inkscape.org/namespaces/inkscape"
   xmlns:sodipodi="http://sodipodi.sourceforge.net/DTD/sodipodi-0.dtd"
   xmlns="http://www.w3.org/2000/svg"
   xmlns:svg="http://www.w3.org/2000/svg">
  <defs
     id="defs43">
    <inkscape:path-effect
       effect="powerstroke"
       id="path-effect2521"
       is_visible="true"
       lpeversion="1"
       offset_points="1,0.60686616"
       not_jump="false"
       sort_points="true"
       interpolator_type="CubicBezierJohan"
       interpolator_beta="0.2"
       start_linecap_type="zerowidth"
       linejoin_type="extrp_arc"
       miter_limit="4"
       scale_width="1"
       end_linecap_type="zerowidth" />
    <inkscape:path-effect
       effect="powerstroke"
       id="path-effect2517"
       is_visible="true"
       lpeversion="1"
       offset_points="1,0.60216942"
       not_jump="false"
       sort_points="true"
       interpolator_type="CubicBezierJohan"
       interpolator_beta="0.2"
       start_linecap_type="zerowidth"
       linejoin_type="extrp_arc"
       miter_limit="4"
       scale_width="1"
       end_linecap_type="zerowidth" />
    <inkscape:path-effect
       effect="powerstroke"
       id="path-effect2513"
       is_visible="true"
       lpeversion="1"
       offset_points="1,0.60833265"
       not_jump="false"
       sort_points="true"
       interpolator_type="CubicBezierJohan"
       interpolator_beta="0.2"
       start_linecap_type="zerowidth"
       linejoin_type="extrp_arc"
       miter_limit="4"
       scale_width="1"
       end_linecap_type="zerowidth" />
  </defs>
  <sodipodi:namedview
     id="namedview41"
     pagecolor="#505050"
     bordercolor="#eeeeee"
     borderopacity="1"
     inkscape:pageshadow="0"
     inkscape:pageopacity="0"
     inkscape:pagecheckerboard="0"
     showgrid="false"
     inkscape:snap-smooth-nodes="true"
     inkscape:snap-midpoints="true"
     inkscape:snap-intersection-paths="true"
     inkscape:object-paths="true"
     inkscape:zoom="0.76574074"
     inkscape:cx="754.17171"
     inkscape:cy="644.474"
     inkscape:window-width="1920"
     inkscape:window-height="1009"
     inkscape:window-x="1912"
     inkscape:window-y="-8"
     inkscape:window-maximized="1"
     inkscape:current-layer="svg39" />
  <path
     id="rect29-0"
     style="fill:#000000;fill-opacity:1"
     d="M 1920 540 C 1920 540 1870 675 1870 810 C 1870 945 1920 1080 1920 1080 L 1920 540 z " />
  <path
     id="rect31"
     style="fill:#ec4e20;fill-opacity:1"
     d="m 384,0 h 384 c 0,0 50,135 50,270 0,135 -50,270 -50,270 0,0 -50,135 -50,270 0,135 50,270 50,270 H 384 c 0,0 -50,-135 -50,-270 0,-135 50,-270 50,-270 0,0 50,-135 50,-270 C 434,135 384,0 384,0 Z"
     sodipodi:nodetypes="ccsssccsssc" />
  <path
     id="rect33"
     style="fill:#ff9505;fill-opacity:0.97983873"
     d="m 768,0 h 384 c 0,0 50,135 50,270 0,135 -50,270 -50,270 0,0 -50,135 -50,270 0,135 50,270 50,270 H 768 c 0,0 -50,-135 -50,-270 0,-135 50,-270 50,-270 0,0 50,-135 50,-270 C 818,135 768,0 768,0 Z"
     sodipodi:nodetypes="ccsssccsssc" />
  <path
     id="rect35"
     style="fill:#016fb9;fill-opacity:1"
     d="m 1152,0 h 384 c 0,0 50,135 50,270 0,134.95919 -50,270 -50,270 0,0 -50,135 -50,270 0,135 50,270 50,270 h -384 c 0,0 -50,-135 -50,-270 0,-135 50,-270 50,-270 0,0 50,-135 50,-270 0,-135 -50,-270 -50,-270 z"
     sodipodi:nodetypes="ccscsccscsc" />
  <path
     id="rect37"
     style="fill:#000000;fill-opacity:1;stroke-width:1"
     d="M 1536 0 C 1536 0 1586 135 1586 270 C 1586 404.95919 1536 539.91797 1536 539.91797 C 1536 539.91797 1486 675 1486 810 C 1486 945 1536 1080 1536 1080 L 1920 1080 C 1920 1080 1870 945 1870 810 C 1870 675 1920 540 1920 540 L 1920 0 L 1536 0 z " />
  <path
     id="rect29"
     style="fill:#2c2c2c;fill-opacity:1"
     d="M 0,0 C 0,0 50,135 50,270 50,405 0,540 0,540 v 540 h 384 c 0,0 -50,-135 -50,-270 0,-135 50,-270 50,-270 0,0 50,-135 50,-270 C 434,135 384,0 384,0 Z" />
  <path
     id="rect37-8"
     style="fill:#2c2c2c;fill-opacity:1;stroke-width:1"
     d="M 0,0 V 540 C 0,540 50,405 50,270 50,135 0,0 0,0 Z" />
</svg>
