<?xml version="1.0" encoding="utf-8"?>
<!-- Generator: Adobe Illustrator 24.3.0, SVG Export Plug-In . SVG Version: 6.00 Build 0)  -->
<svg version="1.1" id="Layer_1" xmlns="http://www.w3.org/2000/svg" xmlns:xlink="http://www.w3.org/1999/xlink" x="0px" y="0px"
	 viewBox="0 0 24 24" style="enable-background:new 0 0 24 24;" xml:space="preserve">
<path d="M12,0C5.4,0,0,5.4,0,12s5.4,12,12,12s12-5.4,12-12S18.6,0,12,0z M10.7,4.7c3.3,0,6,2.7,6,5.9c0,0.2-0.1,0.5-0.3,0.6
	c-0.2,0.2-0.4,0.3-0.6,0.3c-0.2,0-0.5-0.1-0.6-0.3c-0.2-0.2-0.3-0.4-0.3-0.6c0-1.1-0.4-2.2-1.2-3c-0.8-0.8-1.9-1.2-3-1.2
	c-0.1,0-0.2,0-0.3-0.1c-0.1,0-0.2-0.1-0.3-0.2C10,6.1,9.9,6,9.8,5.9c0-0.1-0.1-0.2-0.1-0.3s0-0.2,0.1-0.3C9.9,5.1,10,5,10,5
	c0.1-0.1,0.2-0.1,0.3-0.2C10.4,4.7,10.6,4.7,10.7,4.7z M5.6,14.2c-0.2,0-0.5-0.1-0.6-0.3c-0.2-0.2-0.3-0.4-0.3-0.6
	c0-0.8,0.2-1.6,0.5-2.3c0.3-0.7,0.7-1.4,1.3-1.9c0.6-0.6,1.2-1,1.9-1.3c0.7-0.3,1.5-0.5,2.3-0.5c0.1,0,0.2,0,0.4,0.1
	c0.1,0,0.2,0.1,0.3,0.2c0.1,0.1,0.2,0.2,0.2,0.3c0,0.1,0.1,0.2,0.1,0.3c0,0.1,0,0.2-0.1,0.3c0,0.1-0.1,0.2-0.2,0.3
	C11.2,9,11.1,9.1,11,9.1s-0.2,0.1-0.4,0.1c-1.1,0-2.2,0.4-3,1.2c-0.8,0.8-1.2,1.9-1.2,3c0,0.2-0.1,0.5-0.3,0.6
	C6.1,14.1,5.8,14.2,5.6,14.2L5.6,14.2z M13.3,19.3c-3.3,0-6-2.7-6-5.9c0-0.2,0.1-0.4,0.3-0.6c0.2-0.2,0.4-0.2,0.6-0.2
	c0.2,0,0.4,0.1,0.6,0.2c0.2,0.2,0.3,0.4,0.3,0.6c0,0.6,0.1,1.1,0.3,1.6c0.2,0.5,0.5,1,0.9,1.4c0.4,0.4,0.9,0.7,1.4,0.9
	c0.5,0.2,1.1,0.3,1.6,0.3c0.1,0,0.2,0,0.4,0.1c0.1,0,0.2,0.1,0.3,0.2c0.1,0.1,0.2,0.2,0.2,0.3c0,0.1,0.1,0.2,0.1,0.3
	c0,0.1,0,0.2-0.1,0.3c0,0.1-0.1,0.2-0.2,0.3c-0.1,0.1-0.2,0.1-0.3,0.2C13.6,19.3,13.4,19.3,13.3,19.3z M13.3,16.6
	c-0.2,0-0.5-0.1-0.6-0.3c-0.2-0.2-0.3-0.4-0.3-0.6c0-0.2,0.1-0.5,0.3-0.6c0.2-0.2,0.4-0.3,0.6-0.3c1.1,0,2.2-0.4,3-1.2
	c0.8-0.8,1.2-1.9,1.2-3c0-0.2,0.1-0.5,0.3-0.6c0.2-0.2,0.4-0.3,0.6-0.3c0.2,0,0.5,0.1,0.6,0.3c0.2,0.2,0.3,0.4,0.3,0.6
	C19.3,13.9,16.6,16.6,13.3,16.6L13.3,16.6z"/>
</svg>
