<svg width="24" height="24" viewBox="0 0 24 24" fill="none" xmlns="http://www.w3.org/2000/svg">
<path d="M12 0C5.373 0 0 5.373 0 12C0 18.627 5.373 24 12 24C18.627 24 24 18.627 24 12C24 5.373 18.627 0 12 0ZM10.686 4.715C13.975 4.715 16.642 7.375 16.642 10.658C16.642 10.8911 16.5494 11.1147 16.3845 11.2795C16.2197 11.4444 15.9961 11.537 15.763 11.537C15.5299 11.537 15.3063 11.4444 15.1415 11.2795C14.9766 11.1147 14.884 10.8911 14.884 10.658C14.8827 9.54586 14.4397 8.47977 13.6524 7.69421C12.8652 6.90865 11.7981 6.46794 10.686 6.469C10.5673 6.47467 10.4487 6.45619 10.3374 6.41467C10.226 6.37316 10.1243 6.30947 10.0383 6.22748C9.95225 6.14548 9.88379 6.04688 9.83701 5.93765C9.79023 5.82842 9.76611 5.71083 9.76611 5.592C9.76611 5.47317 9.79023 5.35558 9.83701 5.24635C9.88379 5.13712 9.95225 5.03852 10.0383 4.95652C10.1243 4.87453 10.226 4.81084 10.3374 4.76933C10.4487 4.72781 10.5673 4.70933 10.686 4.715ZM5.594 14.219C5.36122 14.219 5.13795 14.1267 4.97316 13.9623C4.80837 13.7978 4.71553 13.5748 4.715 13.342C4.71566 12.5606 4.87024 11.7869 5.16993 11.0652C5.46961 10.3435 5.90852 9.68788 6.4616 9.13582C7.01468 8.58377 7.67109 8.14607 8.39335 7.84772C9.1156 7.54937 9.88955 7.39621 10.671 7.397C10.7904 7.39001 10.91 7.4075 11.0224 7.44839C11.1348 7.48927 11.2377 7.5527 11.3247 7.63478C11.4118 7.71686 11.4811 7.81585 11.5285 7.92568C11.5759 8.03552 11.6003 8.15388 11.6003 8.2735C11.6003 8.39312 11.5759 8.51148 11.5285 8.62132C11.4811 8.73115 11.4118 8.83014 11.3247 8.91222C11.2377 8.9943 11.1348 9.05772 11.0224 9.09861C10.91 9.1395 10.7904 9.15699 10.671 9.15C9.55859 9.1492 8.49141 9.59028 7.70416 10.3762C6.91691 11.1621 6.47406 12.2286 6.473 13.341C6.47247 13.5739 6.37966 13.797 6.2149 13.9616C6.05014 14.1262 5.82687 14.2187 5.594 14.219V14.219ZM13.329 19.286C10.039 19.286 7.372 16.624 7.372 13.342C7.38278 13.1161 7.48009 12.9031 7.64376 12.747C7.80742 12.591 8.02487 12.5039 8.251 12.5039C8.47713 12.5039 8.69458 12.591 8.85824 12.747C9.02191 12.9031 9.11922 13.1161 9.13 13.342C9.13066 13.8928 9.23979 14.438 9.45116 14.9466C9.66254 15.4552 9.97202 15.9172 10.3619 16.3061C10.7518 16.6951 11.2146 17.0035 11.7236 17.2137C12.2327 17.4238 12.7782 17.5317 13.329 17.531C13.4486 17.524 13.5683 17.5415 13.6808 17.5825C13.7934 17.6234 13.8963 17.6869 13.9835 17.7691C14.0706 17.8512 14.14 17.9503 14.1874 18.0603C14.2349 18.1703 14.2593 18.2887 14.2593 18.4085C14.2593 18.5283 14.2349 18.6467 14.1874 18.7567C14.14 18.8667 14.0706 18.9658 13.9835 19.0479C13.8963 19.1301 13.7934 19.1936 13.6808 19.2345C13.5683 19.2755 13.4486 19.293 13.329 19.286ZM13.329 16.603C13.0963 16.603 12.8731 16.5108 12.7082 16.3467C12.5432 16.1825 12.4501 15.9597 12.449 15.727C12.4495 15.494 12.5425 15.2706 12.7075 15.106C12.8724 14.9414 13.096 14.849 13.329 14.849C14.4414 14.8501 15.5087 14.4092 16.2961 13.6235C17.0836 12.8377 17.5267 11.7714 17.528 10.659C17.528 10.4259 17.6206 10.2023 17.7855 10.0375C17.9503 9.87261 18.1739 9.78 18.407 9.78C18.6401 9.78 18.8637 9.87261 19.0285 10.0375C19.1934 10.2023 19.286 10.4259 19.286 10.659C19.286 13.941 16.619 16.603 13.329 16.603V16.603Z" fill="#83BD9E"/>
</svg>
