<?xml version="1.0" encoding="utf-8"?>
<!-- Generator: Adobe Illustrator 24.3.0, SVG Export Plug-In . SVG Version: 6.00 Build 0)  -->
<svg version="1.1" id="Layer_1" xmlns="http://www.w3.org/2000/svg" xmlns:xlink="http://www.w3.org/1999/xlink" x="0px" y="0px"
	 viewBox="0 0 24 24" style="enable-background:new 0 0 24 24;" xml:space="preserve">
<path d="M12,0C8.8,0,5.8,1.3,3.5,3.5C1.3,5.8,0,8.8,0,12s1.3,6.2,3.5,8.5C5.8,22.7,8.8,24,12,24s6.2-1.3,8.5-3.5
	c2.3-2.3,3.5-5.3,3.5-8.5s-1.3-6.2-3.5-8.5C18.2,1.3,15.2,0,12,0L12,0z M6.7,6h10.6c0.6,0,1.2,0.2,1.6,0.7c0.4,0.4,0.7,1,0.7,1.6
	v7.6c0,0.6-0.2,1.2-0.7,1.6s-1,0.7-1.6,0.7H6.7c-0.6,0-1.2-0.2-1.6-0.7c-0.4-0.4-0.7-1-0.7-1.6V8.2c0-0.6,0.2-1.2,0.7-1.6
	C5.5,6.2,6.1,6,6.7,6z M7.2,7.5l4.8,3.6l4.8-3.6H7.2z M6,8.4v7.4C6,16,6,16.2,6.2,16.3c0.1,0.1,0.3,0.2,0.5,0.2h10.6
	c0.2,0,0.4-0.1,0.5-0.2C18,16.2,18,16,18,15.8V8.4l-5.6,4.2c-0.1,0.1-0.3,0.2-0.5,0.2s-0.3-0.1-0.5-0.2L6,8.4z"/>
</svg>
