<?xml version="1.0" encoding="utf-8"?>
<!-- Generator: Adobe Illustrator 22.0.0, SVG Export Plug-In . SVG Version: 6.00 Build 0)  -->
<svg version="1.1" id="Layer_1" xmlns="http://www.w3.org/2000/svg" xmlns:xlink="http://www.w3.org/1999/xlink" x="0px" y="0px"
	 viewBox="0 0 80 80" style="enable-background:new 0 0 80 80;" xml:space="preserve">
<style type="text/css">
	.st0{fill-rule:evenodd;clip-rule:evenodd;fill:#EC4E20;}
</style>
<path class="st0" d="M40,0C17.9,0,0,18.4,0,41c0,18.1,11.5,33.5,27.4,38.9c2,0.4,2.7-0.9,2.7-2c0-1,0-3.6-0.1-7
	c-11.1,2.5-13.5-5.5-13.5-5.5c-1.8-4.7-4.4-6-4.4-6c-3.6-2.5,0.3-2.5,0.3-2.5c4,0.3,6.1,4.2,6.1,4.2c3.6,6.3,9.4,4.5,11.6,3.4
	c0.4-2.7,1.4-4.5,2.5-5.5c-8.9-1-18.2-4.6-18.2-20.3c0-4.5,1.6-8.1,4.1-11c-0.4-1-1.8-5.2,0.4-10.9c0,0,3.4-1.1,11,4.2
	c3.2-0.9,6.6-1.4,10-1.4c3.4,0,6.8,0.5,10,1.4c7.6-5.3,11-4.2,11-4.2c2.2,5.6,0.8,9.8,0.4,10.9c2.6,2.9,4.1,6.5,4.1,11
	c0,15.8-9.4,19.2-18.3,20.2c1.4,1.3,2.7,3.8,2.7,7.6c0,5.5,0,9.9,0,11.3c0,1.1,0.7,2.4,2.8,2C68.5,74.5,80,59.1,80,41
	C80,18.4,62.1,0,40,0z"/>
</svg>
