<svg width="80" height="86" viewBox="0 0 80 86" fill="none" xmlns="http://www.w3.org/2000/svg">
<g clip-path="url(#clip0_18:2)">
<path d="M2.02289 81.8814L5.6579 78.1954C5.6664 78.204 5.67489 78.2125 5.69188 78.2209L2.05685 81.9068C2.03987 81.8984 2.03138 81.8899 2.02289 81.8814Z" fill="#3E5A4C"/>
<path d="M2.04401 81.8971L5.67903 78.2112C5.69601 78.2281 5.72148 78.2451 5.76396 78.2621L2.12894 81.9481C2.09496 81.931 2.06099 81.914 2.04401 81.8971Z" fill="#3C574A"/>
<path d="M2.14221 81.9575L5.77722 78.2716C5.81119 78.2885 5.84517 78.3055 5.88763 78.3226L2.25262 82.0085C2.20167 81.9915 2.16768 81.9744 2.14221 81.9575Z" fill="#3A5548"/>
<path d="M2.24469 82.0086L5.87971 78.3227C5.92217 78.3396 5.97314 78.3566 6.03259 78.3737L2.39758 82.0596C2.33812 82.0425 2.28715 82.0255 2.24469 82.0086Z" fill="#395346"/>
<path d="M2.3974 82.0678L6.03241 78.3819C6.09186 78.3988 6.15981 78.4158 6.24474 78.4329L2.60972 82.1188C2.52479 82.1017 2.45686 82.0848 2.3974 82.0678Z" fill="#375044"/>
<path d="M2.60883 82.1191L6.24383 78.4332C6.32878 78.4502 6.43068 78.4671 6.5411 78.4841L2.90608 82.1701C2.79566 82.153 2.69375 82.1361 2.60883 82.1191Z" fill="#354E42"/>
<path d="M2.90662 82.1698L6.54165 78.4839C6.67753 78.5008 6.82191 78.5178 7.00027 78.5263L3.36525 82.2123C3.1869 82.2037 3.04251 82.1867 2.90662 82.1698Z" fill="#344C40"/>
<path d="M3.36462 82.2121L6.99964 78.5262C7.13553 78.5347 7.2799 78.5347 7.43278 78.5347L3.79777 82.2206C3.6364 82.2206 3.49203 82.2206 3.36462 82.2121Z" fill="#32493E"/>
<path d="M2.26115 79.5372L5.89617 75.8512C5.76876 75.9871 5.65836 76.1229 5.57344 76.2588L1.93842 79.9449C2.02334 79.8005 2.13376 79.6646 2.26115 79.5372Z" fill="#2A3D34"/>
<path d="M1.93798 79.9449L5.57301 76.2589C5.53054 76.3268 5.48807 76.4033 5.46259 76.4712L1.82758 80.1573C1.85306 80.0893 1.89551 80.0129 1.93798 79.9449Z" fill="#2C4036"/>
<path d="M1.82759 80.1573L5.4626 76.4714C5.43711 76.5307 5.41164 76.5902 5.39465 76.6497L1.75964 80.3356C1.77662 80.2763 1.80211 80.2168 1.82759 80.1573Z" fill="#2D4238"/>
<path d="M1.76042 80.3356L5.39544 76.6495C5.37845 76.7005 5.36147 76.7515 5.35296 76.811L1.71796 80.4969C1.72645 80.4374 1.74344 80.3865 1.76042 80.3356Z" fill="#2F443A"/>
<path d="M1.70885 80.4972L5.34386 76.8112C5.33537 76.8621 5.31837 76.913 5.30988 76.9725L1.67487 80.6586C1.69186 80.5991 1.70036 80.5481 1.70885 80.4972Z" fill="#31473C"/>
<path d="M1.68338 80.6494L5.31838 76.9635C5.30989 77.0145 5.3014 77.074 5.3014 77.1333L1.66638 80.8193C1.66638 80.7598 1.67489 80.7089 1.68338 80.6494Z" fill="#32493E"/>
<path d="M1.66724 80.8196L5.30225 77.1335C5.30225 77.193 5.29377 77.2525 5.29377 77.3203L1.65875 81.0064C1.65875 80.9384 1.65875 80.8791 1.66724 80.8196Z" fill="#344C40"/>
<path d="M1.65875 81.006L5.29377 77.3201C5.29377 77.3286 5.29377 77.3456 5.29377 77.354C5.29377 77.3966 5.29376 77.4305 5.30225 77.473L1.66724 81.159C1.66724 81.125 1.65875 81.0826 1.65875 81.0401C1.65875 81.0231 1.65875 81.0146 1.65875 81.006Z" fill="#354E42"/>
<path d="M1.66638 81.1592L5.3014 77.4731C5.30989 77.5157 5.30989 77.558 5.31838 77.6006L1.68338 81.2866C1.67489 81.2441 1.67487 81.2016 1.66638 81.1592Z" fill="#375044"/>
<path d="M1.6842 81.2784L5.31921 77.5923C5.3277 77.6348 5.3362 77.6689 5.34469 77.7028L1.70968 81.3887C1.70118 81.3633 1.69269 81.3209 1.6842 81.2784Z" fill="#395346"/>
<path d="M1.70905 81.3968L5.34406 77.7107C5.35256 77.7531 5.36954 77.7872 5.37803 77.8211L1.74302 81.5071C1.73453 81.4731 1.72604 81.4307 1.70905 81.3968Z" fill="#3A5548"/>
<path d="M1.75159 81.5075L5.38661 77.8214C5.40359 77.8638 5.42906 77.9064 5.44605 77.9488L1.81103 81.6348C1.78556 81.5924 1.76858 81.5499 1.75159 81.5075Z" fill="#3C574A"/>
<path d="M1.81146 81.6349L5.44647 77.949C5.51442 78.0594 5.59086 78.1443 5.6588 78.1953L2.02379 81.8813C1.95585 81.8218 1.87941 81.7454 1.81146 81.6349Z" fill="#3E5A4C"/>
<path d="M2.2608 79.537L5.89581 75.8511C5.92129 75.8255 5.95527 75.7916 5.98075 75.7662C6.13361 75.6218 6.32047 75.4943 6.54129 75.4009L2.90626 79.0868C2.68545 79.1887 2.49861 79.3077 2.34573 79.4521C2.32025 79.4775 2.29476 79.503 2.2608 79.537Z" fill="#6F7776"/>
<path d="M2.90662 79.0787L6.54165 75.3927C6.65206 75.3418 6.76246 75.2993 6.88986 75.2653L3.25484 78.9513C3.13593 78.9853 3.01703 79.0362 2.90662 79.0787Z" fill="#747C7B"/>
<path d="M3.25543 78.9509L6.89044 75.2649C7.00934 75.231 7.12826 75.1971 7.25565 75.1715L3.62063 78.8574C3.49324 78.883 3.37434 78.9169 3.25543 78.9509Z" fill="#78807F"/>
<path d="M3.25543 78.9509L6.89044 75.2649C7.00934 75.231 7.12826 75.1971 7.25565 75.1715L3.62063 78.8574C3.49324 78.883 3.37434 78.9169 3.25543 78.9509Z" fill="#78807F"/>
<path d="M3.61957 78.8578L7.25457 75.1719C7.39046 75.1465 7.53484 75.1209 7.67922 75.1039L4.04421 78.7899C3.89983 78.8068 3.75545 78.8324 3.61957 78.8578Z" fill="#7C8584"/>
<path d="M4.0528 78.7899L7.6878 75.104C7.85767 75.087 8.03602 75.0701 8.21437 75.0701L4.57936 78.756C4.39251 78.756 4.21416 78.773 4.0528 78.7899Z" fill="#808988"/>
<path d="M4.58002 78.756L8.21502 75.0701C8.28297 75.0701 8.35942 75.0701 8.43585 75.0701L4.80084 78.756C4.7244 78.7475 4.64797 78.756 4.58002 78.756Z" fill="#858E8D"/>
<path d="M1.05475 78.3312L4.68976 74.6451C4.73223 74.6027 4.77468 74.5602 4.81714 74.5178C5.09741 74.2545 5.42865 74.0422 5.80234 73.8638L2.16734 77.5498C1.79363 77.7197 1.46241 77.9405 1.18214 78.2037C1.13967 78.2463 1.09721 78.2886 1.05475 78.3312Z" fill="#2A3D34"/>
<path d="M2.16791 77.5584L5.80293 73.8723C5.97278 73.7959 6.15964 73.7279 6.34647 73.6686L2.71147 77.3546C2.52462 77.4055 2.33778 77.4819 2.16791 77.5584Z" fill="#2C4036"/>
<path d="M2.7113 77.3462L6.34631 73.6601C6.51617 73.6093 6.69453 73.5583 6.88138 73.5244L3.24636 77.2103C3.05952 77.2528 2.88116 77.2952 2.7113 77.3462Z" fill="#2D4238"/>
<path d="M3.24664 77.2101L6.88166 73.5241C7.0685 73.4902 7.26384 73.4562 7.45919 73.4307L3.82417 77.1166C3.62882 77.1421 3.43349 77.1761 3.24664 77.2101Z" fill="#2F443A"/>
<path d="M3.8233 77.1168L7.45832 73.4307C7.67065 73.4053 7.89147 73.3882 8.12079 73.3882L4.48577 77.0743C4.25645 77.0827 4.03564 77.0997 3.8233 77.1168Z" fill="#31473C"/>
<path d="M4.48694 77.0743L8.12196 73.3882C8.20688 73.3882 8.2918 73.3882 8.37673 73.3882L4.74173 77.0743C4.6568 77.0743 4.57187 77.0743 4.48694 77.0743Z" fill="#32493E"/>
<path d="M3.79877 82.2208L7.4253 78.5349H31.9361L28.3096 82.2208H3.79877Z" fill="#344B40"/>
<path d="M4.80017 78.7471L8.42668 75.0612H16.0195L12.3929 78.7471H4.80017Z" fill="#889291"/>
<path d="M4.74963 77.0744L8.37614 73.3885H14.6186L10.9835 77.0744H4.74963Z" fill="#344B40"/>
<path d="M31.2309 80.9895L34.8658 77.3036C34.7809 77.4396 34.6705 77.5755 34.5431 77.7113L30.908 81.3973C31.0439 81.2699 31.1458 81.1339 31.2309 80.9895Z" fill="#6F7776"/>
<path d="M15.8334 78.7471L19.46 75.0612H32.93L29.3034 78.7471H15.8334Z" fill="#889291"/>
<path d="M31.001 78.9513L34.636 75.2653C34.7294 75.3333 34.8228 75.4352 34.9077 75.5625C34.9248 75.5881 34.9417 75.622 34.9587 75.6475L31.3237 79.3335C31.3067 79.308 31.2898 79.274 31.2728 79.2485C31.1879 79.1211 31.0945 79.0277 31.001 78.9513Z" fill="#A3AEAD"/>
<path d="M31.3329 79.3418L34.9679 75.6559C35.0018 75.7154 35.0273 75.7663 35.0528 75.8258L31.4178 79.5118C31.3922 79.4523 31.3668 79.3928 31.3329 79.3418Z" fill="#9EA9A8"/>
<path d="M31.4173 79.5117L35.0523 75.8258C35.0693 75.8683 35.0863 75.9106 35.0947 75.9446L31.4597 79.6306C31.4427 79.5881 31.4343 79.5542 31.4173 79.5117Z" fill="#9AA5A3"/>
<path d="M31.46 79.6307L35.095 75.9446C35.1035 75.9786 35.112 76.0126 35.1205 76.0551L31.4854 79.741C31.4769 79.7071 31.4685 79.6646 31.46 79.6307Z" fill="#96A09F"/>
<path d="M31.4857 79.7407L35.1206 76.0547C35.1292 76.0888 35.1292 76.1227 35.1377 76.1566L31.5026 79.8427C31.4942 79.8086 31.4857 79.7747 31.4857 79.7407Z" fill="#929C9A"/>
<path d="M31.4941 79.8429L35.129 76.157C35.129 76.1824 35.1376 76.2165 35.1376 76.2419C35.1376 76.2504 35.1376 76.2674 35.1376 76.2759L31.5026 79.9619C31.5026 79.9533 31.5026 79.9363 31.5026 79.9278C31.5026 79.9024 31.5026 79.877 31.4941 79.8429Z" fill="#8D9796"/>
<path d="M31.5024 79.9701L35.1375 76.2842C35.1375 76.3437 35.1375 76.403 35.1375 76.4625L31.5024 80.1484C31.5024 80.0889 31.5024 80.0296 31.5024 79.9701Z" fill="#899391"/>
<path d="M31.5026 80.1484L35.1377 76.4625C35.1377 76.5134 35.1292 76.5729 35.1206 76.6239L31.4857 80.3098C31.494 80.2503 31.4942 80.1993 31.5026 80.1484Z" fill="#858E8D"/>
<path d="M31.4854 80.31L35.1205 76.6241C35.112 76.6751 35.1035 76.726 35.095 76.7769L31.46 80.4628C31.4685 80.412 31.4769 80.361 31.4854 80.31Z" fill="#808988"/>
<path d="M31.4521 80.4631L35.0871 76.7772C35.0786 76.8281 35.0617 76.8791 35.0446 76.9301L31.4097 80.616C31.4266 80.565 31.4436 80.5141 31.4521 80.4631Z" fill="#7C8584"/>
<path d="M31.4093 80.6154L35.0443 76.9295C35.0274 76.9889 35.0018 77.0398 34.9764 77.0993L31.3414 80.7853C31.3668 80.7258 31.3923 80.6748 31.4093 80.6154Z" fill="#78807F"/>
<path d="M31.3409 80.7854L34.9759 77.0995C34.942 77.1675 34.908 77.2439 34.8654 77.3119L31.2305 80.9978C31.2729 80.9214 31.3154 80.8534 31.3409 80.7854Z" fill="#747C7B"/>
<path d="M31.2309 80.9895L34.8658 77.3036C34.7809 77.4395 34.6705 77.5753 34.5431 77.7112L30.908 81.3973C31.0439 81.2698 31.1458 81.1339 31.2309 80.9895Z" fill="#6F7776"/>
<path d="M29.303 78.7471L32.9381 75.0612C33.2608 75.0612 33.5156 75.0697 33.7194 75.0781L30.0844 78.764C29.872 78.7556 29.6173 78.7471 29.303 78.7471Z" fill="#858E8D"/>
<path d="M30.0842 78.7641L33.7193 75.0782C33.9316 75.0867 34.093 75.1036 34.2118 75.1206L30.5769 78.8066C30.4579 78.798 30.2966 78.7811 30.0842 78.7641Z" fill="#899391"/>
<path d="M30.5677 78.8069L34.2027 75.121C34.2792 75.1295 34.3471 75.1465 34.3896 75.155L30.7546 78.8409C30.7121 78.8325 30.6527 78.8239 30.5677 78.8069Z" fill="#8D9796"/>
<path d="M30.7554 78.8406L34.3905 75.1545C34.4244 75.1631 34.45 75.1716 34.4669 75.1716L30.8319 78.8575C30.8149 78.8575 30.7894 78.849 30.7554 78.8406Z" fill="#929C9A"/>
<path d="M30.8314 78.8574L34.4663 75.1715C34.4834 75.1715 34.4919 75.18 34.4919 75.18L30.8568 78.8659C30.8568 78.8659 30.8399 78.8659 30.8314 78.8574Z" fill="#96A09F"/>
<path d="M30.8575 78.8744L34.4925 75.1885C34.5094 75.197 34.5264 75.2055 34.552 75.2139L30.9169 78.9C30.9 78.8915 30.883 78.8744 30.8575 78.8744Z" fill="#9AA5A3"/>
<path d="M30.9165 78.9005L34.5516 75.2144C34.577 75.2314 34.611 75.2485 34.6365 75.2739L31.0014 78.96C30.976 78.9344 30.9421 78.9174 30.9165 78.9005Z" fill="#9EA9A8"/>
<path d="M31.001 78.9513L34.636 75.2653C34.7294 75.3333 34.8228 75.4352 34.9077 75.5625C34.9248 75.5881 34.9417 75.622 34.9587 75.6475L31.3237 79.3335C31.3067 79.308 31.2898 79.274 31.2728 79.2485C31.1879 79.1211 31.0945 79.0277 31.001 78.9513Z" fill="#A3AEAD"/>
<path d="M17.8462 77.0744L21.4728 73.3885H32.8788L29.2524 77.0744H17.8462Z" fill="#344B40"/>
<path d="M29.2525 77.0744L32.8875 73.3885C33.2017 73.3885 33.4735 73.397 33.7113 73.4054L30.0762 77.0915C29.8384 77.0829 29.5667 77.0744 29.2525 77.0744Z" fill="#32493E"/>
<path d="M30.0679 77.0914L33.7028 73.4054C33.9577 73.4224 34.1615 73.4393 34.3399 73.4649L30.7049 77.1508C30.535 77.1254 30.3227 77.1084 30.0679 77.0914Z" fill="#344C40"/>
<path d="M30.7044 77.1504L34.3394 73.4644C34.4752 73.4814 34.5857 73.4984 34.6791 73.5238L31.0441 77.2099C30.9507 77.1844 30.8403 77.1673 30.7044 77.1504Z" fill="#354E42"/>
<path d="M31.0444 77.2015L34.6795 73.5154C34.7644 73.5325 34.8408 73.558 34.9088 73.5749L31.2738 77.261C31.2143 77.244 31.1379 77.227 31.0444 77.2015Z" fill="#375044"/>
<path d="M31.2739 77.2608L34.9089 73.5748C34.9684 73.5917 35.0279 73.6088 35.0703 73.6343C35.0788 73.6343 35.0873 73.6427 35.0873 73.6427L31.4522 77.3288C31.4437 77.3288 31.4353 77.3202 31.4353 77.3202C31.3929 77.3032 31.3419 77.2863 31.2739 77.2608Z" fill="#395346"/>
<path d="M31.46 77.3288L35.095 73.6428C35.1714 73.6768 35.2479 73.7107 35.3158 73.7448L31.6808 77.4307C31.6044 77.3966 31.5364 77.3627 31.46 77.3288Z" fill="#3A5548"/>
<path d="M31.6809 77.4308L35.316 73.7449C35.4179 73.7958 35.5197 73.8638 35.6132 73.9317L31.9782 77.6178C31.8848 77.5498 31.7828 77.4903 31.6809 77.4308Z" fill="#3C574A"/>
<path d="M31.978 77.6263L35.6129 73.9402C35.8678 74.1271 36.0885 74.3649 36.2924 74.6622C36.3349 74.7217 36.3773 74.7895 36.4112 74.849L32.7763 78.535C32.7424 78.4671 32.6999 78.4076 32.6574 78.3481C32.4536 78.0508 32.2243 77.8131 31.978 77.6263Z" fill="#3E5A4C"/>
<path d="M32.7684 78.5347L36.4033 74.8488C36.4799 74.9761 36.5477 75.112 36.5987 75.2479L32.9637 78.9338C32.9128 78.7979 32.8448 78.6621 32.7684 78.5347Z" fill="#3C574A"/>
<path d="M32.9723 78.9342L36.6073 75.2483C36.6497 75.3417 36.6753 75.4435 36.7092 75.5371L33.0741 79.223C33.0402 79.1296 33.0062 79.0277 32.9723 78.9342Z" fill="#3A5548"/>
<path d="M33.0659 79.2312L36.7009 75.5452C36.7264 75.6302 36.7433 75.7151 36.7604 75.8L33.1254 79.4859C33.1084 79.401 33.0913 79.3161 33.0659 79.2312Z" fill="#395346"/>
<path d="M33.1249 79.4864L36.7599 75.8004C36.7769 75.8854 36.7853 75.9618 36.7938 76.0467L33.1589 79.7326C33.1504 79.6477 33.1418 79.5628 33.1249 79.4864Z" fill="#375044"/>
<path d="M33.1589 79.7325L36.794 76.0466C36.8026 76.1144 36.8026 76.1824 36.8109 76.2504C36.8109 76.2673 36.8109 76.2929 36.8109 76.3098L33.176 79.9958C33.176 79.9788 33.176 79.9533 33.176 79.9364C33.176 79.8684 33.1675 79.8005 33.1589 79.7325Z" fill="#354E42"/>
<path d="M33.176 79.9959L36.8111 76.3099C36.8111 76.4119 36.811 76.5223 36.8026 76.6243L33.1675 80.3102C33.176 80.1997 33.176 80.0978 33.176 79.9959Z" fill="#344C40"/>
<path d="M33.1674 80.3101L36.8023 76.6241C36.7938 76.7261 36.7853 76.8194 36.7684 76.9213L33.1333 80.6073C33.1503 80.5054 33.1588 80.4035 33.1674 80.3101Z" fill="#32493E"/>
<path d="M33.1333 80.599L36.7683 76.913C36.7514 77.0064 36.7343 77.1084 36.7173 77.2018L33.0823 80.8877C33.1078 80.7943 33.1248 80.7009 33.1333 80.599Z" fill="#31473C"/>
<path d="M33.0828 80.8877L36.7178 77.2018C36.6924 77.3037 36.6668 77.3971 36.6329 77.4989L32.9979 81.185C33.0319 81.0916 33.0573 80.9897 33.0828 80.8877Z" fill="#2F443A"/>
<path d="M32.9981 81.1849L36.6331 77.499C36.5991 77.6093 36.5567 77.7112 36.5057 77.8217L32.8706 81.5076C32.9216 81.3973 32.964 81.2954 32.9981 81.1849Z" fill="#2D4238"/>
<path d="M32.8791 81.5074L36.5142 77.8214C36.4547 77.9572 36.3867 78.0847 36.3103 78.2121L32.6754 81.898C32.7432 81.7707 32.8197 81.6348 32.8791 81.5074Z" fill="#2C4036"/>
<path d="M32.6662 81.8897L36.3011 78.2036C36.1482 78.4499 35.9699 78.6792 35.7576 78.8916L32.1226 82.5775C32.3349 82.3652 32.5218 82.1359 32.6662 81.8897Z" fill="#2A3D34"/>
<path d="M22.0759 44.5459L25.7109 40.86L19.46 75.0614L15.8334 78.7473L22.0759 44.5459Z" fill="#838D8B"/>
<path d="M22.9504 49.149L26.5855 45.4631L21.4728 73.3881L17.8462 77.074L22.9504 49.149Z" fill="#32483D"/>
<path d="M22.0752 44.5459L25.7103 40.86L26.8569 42.8218L23.2218 46.5078L22.0752 44.5459Z" fill="#405D4F"/>
<path d="M26.577 44.5036L30.212 40.8175C31.0783 42.2953 32.1654 43.6627 33.4733 44.9027C34.0169 45.4207 34.5859 45.8963 35.1719 46.3295L31.5369 50.0156C30.9508 49.5739 30.3818 49.0983 29.8383 48.5887C28.5303 47.3402 27.4432 45.9814 26.577 44.5036Z" fill="#A3AEAD"/>
<path d="M23.2222 46.508L26.8571 42.8219L23.2222 46.508Z" fill="#3C574A"/>
<path d="M23.2222 46.508L26.8571 42.8219C28.4708 45.5907 30.3988 47.8158 32.6664 49.5144L29.0313 53.2005C26.7637 51.5103 24.8358 49.2851 23.2222 46.508Z" fill="#3E5A4C"/>
<path d="M29.0317 53.2001L32.6667 49.514C33.4141 50.0747 34.1955 50.5757 35.0192 51.0174L31.3843 54.7033C30.5605 54.2618 29.7791 53.7606 29.0317 53.2001Z" fill="#3C574A"/>
<path d="M31.3832 54.7037L35.0182 51.0178C35.6212 51.349 36.2497 51.6377 36.8951 51.9096L33.2601 55.5955C32.6147 55.3323 31.9862 55.035 31.3832 54.7037Z" fill="#3A5548"/>
<path d="M33.2613 55.5951L36.8963 51.9092C37.4738 52.147 38.0683 52.3592 38.6714 52.5461L35.0363 56.2321C34.4248 56.0368 33.8387 55.8329 33.2613 55.5951Z" fill="#395346"/>
<path d="M35.0355 56.224L38.6704 52.538C39.2649 52.7163 39.8765 52.8778 40.4965 53.0136L36.8614 56.6996C36.2414 56.5637 35.6299 56.4108 35.0355 56.224Z" fill="#375044"/>
<path d="M36.8616 56.6992L40.4967 53.0133C41.1336 53.1492 41.796 53.2681 42.467 53.353L38.832 57.039C38.1611 56.9541 37.5071 56.8436 36.8616 56.6992Z" fill="#354E42"/>
<path d="M38.8325 57.0395L42.4675 53.3534C43.1894 53.4468 43.9369 53.5148 44.7012 53.5573L41.0662 57.2432C40.3018 57.2093 39.563 57.1414 38.8325 57.0395Z" fill="#344C40"/>
<path d="M41.0657 57.2429L44.7008 53.557C45.2443 53.5824 45.7964 53.5995 46.3654 53.5995C46.6796 53.5995 46.9938 53.5909 47.3081 53.5824L43.673 57.2685C43.3588 57.2769 43.0446 57.2854 42.7303 57.2854C42.1698 57.2854 41.6178 57.277 41.0657 57.2429Z" fill="#32493E"/>
<path d="M43.6816 57.2768L47.3166 53.5908C48.2254 53.5653 49.1256 53.5058 50.0089 53.404L46.3739 57.0899C45.4822 57.1919 44.5904 57.2512 43.6816 57.2768Z" fill="#31473C"/>
<path d="M46.3734 57.0902L50.0084 53.4042C50.9342 53.3023 51.843 53.1579 52.7432 52.9711L49.1081 56.657C48.2079 56.8438 47.2991 56.9882 46.3734 57.0902Z" fill="#2F443A"/>
<path d="M49.1094 56.6573L52.7444 52.9712C53.7466 52.7675 54.7318 52.5126 55.6915 52.207L52.0564 55.8929C51.0883 56.1986 50.1031 56.4534 49.1094 56.6573Z" fill="#2D4238"/>
<path d="M52.0556 55.8926L55.6907 52.2067C56.8966 51.833 58.0772 51.3743 59.2237 50.8477L55.5888 54.5338C54.4422 55.0602 53.2617 55.5189 52.0556 55.8926Z" fill="#2C4036"/>
<path d="M55.5893 54.5338L59.2244 50.8477C62.7489 49.2255 66.0272 46.89 69.0338 43.858L65.3988 47.544C62.3923 50.576 59.1139 52.9116 55.5893 54.5338Z" fill="#2A3D34"/>
<path d="M24.4625 38.7451L28.0974 35.0592C28.1994 35.6282 28.3352 36.1887 28.4881 36.7407L24.8532 40.4268C24.7003 39.8747 24.5728 39.3142 24.4625 38.7451Z" fill="#96A09F"/>
<path d="M24.853 40.4267L28.488 36.7407C28.6579 37.3521 28.8618 37.9552 29.0996 38.5412L25.4645 42.2272C25.2352 41.6412 25.0313 41.0382 24.853 40.4267Z" fill="#9AA5A3"/>
<path d="M25.4639 42.2187L29.0988 38.5327C29.4132 39.3226 29.7868 40.0785 30.2115 40.8088L26.5764 44.4948C26.1517 43.7729 25.7781 43.0085 25.4639 42.2187Z" fill="#9EA9A8"/>
<path d="M26.577 44.5036L30.212 40.8175C31.0783 42.2953 32.1654 43.6627 33.4733 44.9027C34.0169 45.4207 34.5859 45.8963 35.1719 46.3295L31.5369 50.0156C30.9508 49.5739 30.3818 49.0983 29.8383 48.5887C28.5303 47.3402 27.4432 45.9814 26.577 44.5036Z" fill="#A3AEAD"/>
<path d="M24.4625 38.7451L28.0974 35.0592C28.1994 35.6282 28.3352 36.1887 28.4881 36.7407L24.8532 40.4268C24.7003 39.8747 24.5728 39.3142 24.4625 38.7451Z" fill="#96A09F"/>
<path d="M24.1307 35.2884L27.7657 31.6024C27.7657 31.7213 27.7742 31.8402 27.7742 31.9591C27.7913 32.4432 27.8167 32.9188 27.8676 33.3859L24.2327 37.0718C24.1902 36.6047 24.1562 36.1291 24.1393 35.6451C24.1393 35.5262 24.1307 35.4072 24.1307 35.2884Z" fill="#8D9796"/>
<path d="M24.2329 37.0639L27.868 33.3779C27.9274 33.947 28.0039 34.5075 28.1058 35.0596L24.4707 38.7455C24.3688 38.1934 24.2839 37.6414 24.2329 37.0639Z" fill="#929C9A"/>
<path d="M24.4625 38.7451L28.0974 35.0592C28.1994 35.6282 28.3352 36.1887 28.4881 36.7407L24.8532 40.4268C24.7003 39.8747 24.5728 39.3142 24.4625 38.7451Z" fill="#96A09F"/>
<path d="M26.577 44.5036L30.212 40.8175C31.0783 42.2953 32.1654 43.6627 33.4733 44.9027C34.0169 45.4207 34.5859 45.8963 35.1719 46.3295L31.5369 50.0156C30.9508 49.5739 30.3818 49.0983 29.8383 48.5887C28.5303 47.3402 27.4432 45.9814 26.577 44.5036Z" fill="#A3AEAD"/>
<path d="M31.5366 50.0155L35.1717 46.3295C35.8766 46.8561 36.624 47.3317 37.3969 47.7479L33.7618 51.4338C32.989 51.0177 32.25 50.542 31.5366 50.0155Z" fill="#9EA9A8"/>
<path d="M33.7612 51.4339L37.3961 47.748C37.9652 48.0538 38.5512 48.3341 39.1457 48.5802L35.5107 52.2662C34.9161 52.02 34.3302 51.7397 33.7612 51.4339Z" fill="#9AA5A3"/>
<path d="M35.5112 52.2659L39.1463 48.5798C39.6729 48.7922 40.2164 48.9876 40.7684 49.1574L37.1334 52.8435C36.5814 52.6735 36.0463 52.4782 35.5112 52.2659Z" fill="#96A09F"/>
<path d="M37.1337 52.8436L40.7686 49.1575C41.2952 49.319 41.8303 49.4548 42.3823 49.5738L38.7473 53.2597C38.1952 53.1407 37.6602 53.0049 37.1337 52.8436Z" fill="#929C9A"/>
<path d="M38.7469 53.2596L42.3819 49.5735C42.9339 49.6925 43.486 49.7859 44.0551 49.8623L40.42 53.5483C39.8509 53.4719 39.2989 53.3785 38.7469 53.2596Z" fill="#8D9796"/>
<path d="M40.4199 53.5485L44.055 49.8625C44.6494 49.9389 45.2524 49.9984 45.8724 50.0324L42.2374 53.7183C41.6259 53.6844 41.0144 53.6334 40.4199 53.5485Z" fill="#899391"/>
<path d="M42.2461 53.7183L45.8812 50.0323C46.3058 50.0578 46.7474 50.0663 47.1805 50.0663C47.4608 50.0663 47.7411 50.0663 48.0213 50.0578L44.3864 53.7437C44.1061 53.7522 43.8258 53.7522 43.5456 53.7522C43.1039 53.7522 42.6707 53.7437 42.2461 53.7183Z" fill="#858E8D"/>
<path d="M44.386 53.7436L48.0211 50.0577C48.828 50.0323 49.6263 49.9813 50.4076 49.8879L46.7726 53.5738C45.9912 53.6587 45.1929 53.7182 44.386 53.7436Z" fill="#808988"/>
<path d="M46.7728 53.5742L50.4077 49.8882C51.2231 49.7948 52.0299 49.6673 52.8199 49.506L49.1848 53.192C48.395 53.3534 47.5881 53.4807 46.7728 53.5742Z" fill="#7C8584"/>
<path d="M49.1845 53.1918L52.8196 49.5058C53.6943 49.3275 54.5521 49.1067 55.4014 48.8434L51.7664 52.5294C50.9172 52.7927 50.0593 53.0134 49.1845 53.1918Z" fill="#78807F"/>
<path d="M31.893 17.3938L35.528 13.7078C33.8379 15.4234 32.4196 17.2154 31.273 19.0754L27.6379 22.7613C28.7845 20.9014 30.2028 19.1093 31.893 17.3938Z" fill="#6F7776"/>
<path d="M27.6379 22.7613L31.2729 19.0754C30.7039 20.0011 30.2028 20.9438 29.7697 21.895L26.1346 25.5811C26.5677 24.6213 27.0689 23.6871 27.6379 22.7613Z" fill="#747C7B"/>
<path d="M26.1442 25.5807L29.7791 21.8947C29.4479 22.625 29.1591 23.364 28.9129 24.1199L25.2778 27.8058C25.5242 27.0499 25.8129 26.3111 26.1442 25.5807Z" fill="#78807F"/>
<path d="M25.2687 27.8063L28.9038 24.1204C28.6914 24.7658 28.5045 25.4198 28.3516 26.0738L24.7167 29.7597C24.8696 29.1058 25.0564 28.4518 25.2687 27.8063Z" fill="#7C8584"/>
<path d="M24.7169 29.7595L28.3519 26.0735C28.2075 26.685 28.0887 27.2965 28.0037 27.9165L24.3687 31.6024C24.4621 30.9824 24.5725 30.371 24.7169 29.7595Z" fill="#808988"/>
<path d="M24.3688 31.6109L28.0037 27.9248C27.9188 28.5279 27.8508 29.1309 27.8084 29.7424L24.1734 33.4283C24.2159 32.8168 24.2837 32.2053 24.3688 31.6109Z" fill="#858E8D"/>
<path d="M24.1735 33.4287L27.8086 29.7427C27.7662 30.3627 27.7577 30.9827 27.7662 31.6026L24.1311 35.2887C24.1226 34.6602 24.1396 34.0402 24.1735 33.4287Z" fill="#899391"/>
<path d="M33.1077 18.5743L36.7427 14.8884C35.1376 16.5189 33.7956 18.2175 32.7085 19.9671L29.0735 23.6531C30.1606 21.9036 31.5026 20.2049 33.1077 18.5743Z" fill="#2A3D34"/>
<path d="M29.0821 23.6615L32.717 19.9756C32.1819 20.8419 31.7148 21.7251 31.3072 22.6254L27.6721 26.3113C28.0799 25.4111 28.547 24.5278 29.0821 23.6615Z" fill="#2C4036"/>
<path d="M27.6721 26.3031L31.3071 22.6172C31.0013 23.2965 30.7296 23.9931 30.5003 24.6894L26.8653 28.3754C27.0946 27.679 27.3663 26.991 27.6721 26.3031Z" fill="#2D4238"/>
<path d="M26.8655 28.3833L30.5006 24.6974C30.2968 25.3004 30.1268 25.9033 29.9825 26.5149L26.3475 30.2009C26.4919 29.5894 26.6617 28.9779 26.8655 28.3833Z" fill="#2F443A"/>
<path d="M26.3476 30.2014L29.9827 26.5153C29.8468 27.0844 29.7449 27.6534 29.6599 28.2309L26.0249 31.917C26.1098 31.3395 26.2117 30.7704 26.3476 30.2014Z" fill="#31473C"/>
<path d="M26.0244 31.9166L29.6595 28.2306C29.5745 28.7827 29.5151 29.3517 29.481 29.9123L25.8461 33.5982C25.88 33.0292 25.9395 32.4686 26.0244 31.9166Z" fill="#32493E"/>
<path d="M25.8458 33.5982L29.4808 29.9122C29.4469 30.4813 29.4298 31.0503 29.4383 31.6278L25.8034 35.3138C25.7949 34.7362 25.8119 34.1672 25.8458 33.5982Z" fill="#344C40"/>
<path d="M25.8041 35.3142L29.4392 31.6281C29.4392 31.7386 29.4392 31.8489 29.4476 31.9508C29.4647 32.3925 29.4902 32.8257 29.5327 33.2503L25.8976 36.9363C25.8551 36.5116 25.8297 36.0784 25.8127 35.6369C25.8041 35.535 25.8041 35.4245 25.8041 35.3142Z" fill="#354E42"/>
<path d="M25.897 36.9448L29.532 33.2589C29.583 33.7769 29.651 34.2865 29.7444 34.7876L26.1093 38.4736C26.0159 37.9724 25.948 37.4628 25.897 36.9448Z" fill="#375044"/>
<path d="M26.1097 38.4734L29.7448 34.7875C29.8382 35.3055 29.957 35.8151 30.1014 36.3162L26.4665 40.0022C26.3221 39.5011 26.2031 38.9915 26.1097 38.4734Z" fill="#395346"/>
<path d="M26.4581 40.0019L30.093 36.3159C30.2545 36.8764 30.4328 37.42 30.6452 37.955L27.0101 41.641C26.8063 41.1059 26.6195 40.5624 26.4581 40.0019Z" fill="#3A5548"/>
<path d="M27.0181 41.6328L30.653 37.9467C30.9418 38.6601 31.273 39.3481 31.6637 40.0106L28.0286 43.6965C27.6379 43.0341 27.3068 42.3462 27.0181 41.6328Z" fill="#3C574A"/>
<path d="M28.0286 43.7053L31.6636 40.0192C32.445 41.3526 33.4302 42.5841 34.6107 43.7053C35.0948 44.1639 35.6044 44.597 36.1395 44.9877L32.5044 48.6737C31.9778 48.283 31.4682 47.8498 30.9757 47.3912C29.7867 46.2701 28.8099 45.0387 28.0286 43.7053Z" fill="#3E5A4C"/>
<path d="M32.4964 48.6737L36.1314 44.9876C36.7769 45.4632 37.4477 45.8964 38.1443 46.2701L34.5092 49.9561C33.8128 49.5823 33.1418 49.1577 32.4964 48.6737Z" fill="#3C574A"/>
<path d="M34.5098 49.9645L38.1449 46.2786C38.663 46.5588 39.198 46.8137 39.7416 47.0344L36.1066 50.7204C35.563 50.4911 35.0279 50.2362 34.5098 49.9645Z" fill="#3A5548"/>
<path d="M36.1053 50.7121L39.7404 47.0261C40.2244 47.2214 40.717 47.3997 41.218 47.5526L37.5831 51.2387C37.0821 51.0858 36.5894 50.9159 36.1053 50.7121Z" fill="#395346"/>
<path d="M37.5927 51.2469L41.2276 47.5609C41.7117 47.7053 42.2043 47.8327 42.7054 47.9431L39.0705 51.629C38.5693 51.5187 38.0768 51.3913 37.5927 51.2469Z" fill="#375044"/>
<path d="M39.0703 51.6293L42.7054 47.9434C43.2064 48.0537 43.7245 48.1387 44.2511 48.2066L40.6161 51.8927C40.0895 51.8247 39.5715 51.7396 39.0703 51.6293Z" fill="#354E42"/>
<path d="M40.6067 51.8921L44.2417 48.2062C44.7938 48.2826 45.3458 48.3335 45.9233 48.3591L42.2884 52.045C41.7193 52.0196 41.1588 51.9686 40.6067 51.8921Z" fill="#344C40"/>
<path d="M42.2886 52.0453L45.9236 48.3593C46.3228 48.3763 46.7219 48.3932 47.1297 48.3932C47.3929 48.3932 47.6562 48.3933 47.9195 48.3848L44.2845 52.0707C44.0211 52.0792 43.7579 52.0792 43.4946 52.0792C43.087 52.0792 42.6877 52.0707 42.2886 52.0453Z" fill="#32493E"/>
<path d="M44.2852 52.071L47.9201 48.385C48.676 48.3595 49.4235 48.3085 50.1623 48.2321L46.5274 51.9181C45.7884 51.9946 45.041 52.0455 44.2852 52.071Z" fill="#31473C"/>
<path d="M46.5269 51.909L50.162 48.2231C50.9263 48.1382 51.6822 48.0192 52.421 47.8663L48.7861 51.5523C48.0471 51.7052 47.2912 51.8241 46.5269 51.909Z" fill="#2F443A"/>
<path d="M48.7855 51.5528L52.4205 47.8667C53.2444 47.6969 54.0512 47.4931 54.841 47.2383L51.206 50.9243C50.4161 51.1791 49.6093 51.3914 48.7855 51.5528Z" fill="#2D4238"/>
<path d="M51.2061 50.9328L54.841 47.2469C55.8262 46.941 56.7859 46.5674 57.7288 46.1342L54.0937 49.8203C53.151 50.2534 52.1912 50.6186 51.2061 50.9328Z" fill="#2C4036"/>
<path d="M54.0936 49.8202L57.7285 46.1343C60.5398 44.8433 63.1471 42.9919 65.5421 40.6053L61.9071 44.2913C59.512 46.6779 56.9048 48.5294 54.0936 49.8202Z" fill="#2A3D34"/>
<path d="M24.1735 33.4287L27.8086 29.7427C27.7662 30.3627 27.7577 30.9827 27.7662 31.6026L24.1311 35.2887C24.1226 34.6602 24.1396 34.0402 24.1735 33.4287Z" fill="#899391"/>
<path d="M24.1307 35.2884L27.7657 31.6024C27.7657 31.7213 27.7742 31.8402 27.7742 31.9591C27.7913 32.4432 27.8167 32.9188 27.8676 33.3859L24.2327 37.0718C24.1902 36.6047 24.1562 36.1291 24.1393 35.6451C24.1393 35.5262 24.1307 35.4072 24.1307 35.2884Z" fill="#8D9796"/>
<path d="M15.0258 10.3952L18.6609 6.70917C18.6693 6.71766 18.6778 6.72615 18.6948 6.73464L15.0599 10.4206C15.0428 10.4121 15.0343 10.4036 15.0258 10.3952Z" fill="#3E5A4C"/>
<path d="M15.0469 10.4111L18.6819 6.72516C18.6989 6.74214 18.7244 6.75915 18.7668 6.77614L15.1318 10.4621C15.0894 10.4451 15.0638 10.4281 15.0469 10.4111Z" fill="#3C574A"/>
<path d="M15.1367 10.4722L18.7716 6.78619C18.8057 6.80317 18.8396 6.82015 18.8821 6.83715L15.2471 10.5231C15.2047 10.5061 15.1706 10.4891 15.1367 10.4722Z" fill="#3A5548"/>
<path d="M15.2475 10.5226L18.8826 6.83667C18.925 6.85366 18.976 6.87064 19.0354 6.88763L15.4004 10.5736C15.3409 10.5566 15.2899 10.5396 15.2475 10.5226Z" fill="#395346"/>
<path d="M15.4003 10.5739L19.0354 6.88788C19.0947 6.90487 19.1627 6.92185 19.2476 6.93885L15.6127 10.6248C15.5278 10.6078 15.4598 10.5908 15.4003 10.5739Z" fill="#375044"/>
<path d="M15.6041 10.6246L19.2391 6.93866C19.3241 6.95565 19.4259 6.97263 19.5449 6.98961L15.9099 10.6756C15.791 10.6671 15.6975 10.6501 15.6041 10.6246Z" fill="#354E42"/>
<path d="M15.9095 10.6757L19.5445 6.98975C19.6804 7.00674 19.8333 7.02371 20.0032 7.03221L16.3681 10.7182C16.1898 10.7097 16.0454 10.7012 15.9095 10.6757Z" fill="#344C40"/>
<path d="M16.3676 10.7179L20.0026 7.03198C20.1385 7.04047 20.2828 7.04049 20.4443 7.04049L16.8092 10.7264C16.6479 10.7349 16.5035 10.7264 16.3676 10.7179Z" fill="#32493E"/>
<path d="M15.3066 7.97514L18.9416 4.28918C18.7972 4.43356 18.6783 4.58644 18.5849 4.73931L14.9498 8.42527C15.0347 8.27239 15.1622 8.12802 15.3066 7.97514Z" fill="#2A3D34"/>
<path d="M14.9417 8.43376L18.5766 4.7478C18.5342 4.82423 18.4917 4.90069 18.4577 4.97712L14.8227 8.66309C14.8566 8.57816 14.8991 8.50171 14.9417 8.43376Z" fill="#2C4036"/>
<path d="M14.8224 8.66307L18.4574 4.97711C18.432 5.03656 18.4066 5.096 18.3895 5.15546L14.7546 8.84142C14.7715 8.77347 14.797 8.71404 14.8224 8.66307Z" fill="#2D4238"/>
<path d="M14.7543 8.84149L18.3894 5.15552C18.3724 5.20649 18.3553 5.25744 18.3469 5.3169L14.7119 9.00286C14.7204 8.94341 14.7374 8.89245 14.7543 8.84149Z" fill="#2F443A"/>
<path d="M14.7033 8.99376L18.3383 5.3078C18.3298 5.35876 18.3213 5.40971 18.3128 5.46066L14.6778 9.14665C14.6863 9.0957 14.6948 9.04471 14.7033 8.99376Z" fill="#31473C"/>
<path d="M14.6782 9.14718L18.3131 5.46118C18.3046 5.51214 18.3046 5.56312 18.2962 5.61407L14.6611 9.30004C14.6696 9.24908 14.6696 9.19813 14.6782 9.14718Z" fill="#32493E"/>
<path d="M14.6611 9.29967L18.2962 5.61371C18.2962 5.66466 18.2877 5.71562 18.2962 5.76657L14.6611 9.45255C14.6611 9.40158 14.6611 9.35063 14.6611 9.29967Z" fill="#344C40"/>
<path d="M14.6611 9.45262L18.2962 5.76666C18.2962 5.77515 18.2962 5.78366 18.2962 5.80064C18.2962 5.85159 18.3046 5.89407 18.3046 5.93653L14.6696 9.62249C14.6611 9.58003 14.6611 9.52907 14.6611 9.48661C14.6611 9.46962 14.6611 9.46111 14.6611 9.45262Z" fill="#354E42"/>
<path d="M14.6693 9.6228L18.3043 5.93683C18.3128 5.9878 18.3128 6.03874 18.3213 6.0812L14.6863 9.76716C14.6778 9.7247 14.6778 9.67376 14.6693 9.6228Z" fill="#375044"/>
<path d="M14.687 9.76727L18.322 6.0813C18.3306 6.12376 18.339 6.16623 18.3475 6.20869L14.7125 9.89466C14.704 9.86069 14.6955 9.80974 14.687 9.76727Z" fill="#395346"/>
<path d="M14.7204 9.89441L18.3554 6.20844C18.3639 6.2509 18.3808 6.29338 18.3978 6.32735L14.7628 10.0133C14.7458 9.97935 14.7288 9.93687 14.7204 9.89441Z" fill="#3A5548"/>
<path d="M14.7626 10.0216L18.3975 6.33563C18.4146 6.38659 18.44 6.42903 18.4655 6.47149L14.8304 10.1575C14.805 10.115 14.7795 10.0641 14.7626 10.0216Z" fill="#3C574A"/>
<path d="M14.8227 10.149L18.4577 6.46307C18.5257 6.57349 18.5937 6.64993 18.6615 6.70088L15.0266 10.3868C14.9671 10.3359 14.8907 10.2594 14.8227 10.149Z" fill="#3E5A4C"/>
<path d="M15.3063 7.97522L18.9413 4.28925C18.9583 4.27227 18.9752 4.25529 18.9923 4.23829C19.1536 4.07692 19.3489 3.94952 19.5783 3.8476L15.9432 7.53357C15.7139 7.63548 15.5186 7.77139 15.3573 7.92426C15.3403 7.94124 15.3232 7.95822 15.3063 7.97522Z" fill="#6F7776"/>
<path d="M15.9428 7.5248L19.5778 3.83884C19.6882 3.78787 19.7986 3.74541 19.926 3.70294L16.2909 7.38892C16.1721 7.43138 16.0531 7.48234 15.9428 7.5248Z" fill="#747C7B"/>
<path d="M16.2908 7.39756L19.9259 3.71157C20.0448 3.6776 20.1637 3.64364 20.2911 3.61816L16.6561 7.30412C16.5286 7.32961 16.4098 7.3636 16.2908 7.39756Z" fill="#78807F"/>
<path d="M16.6566 7.30379L20.2916 3.61783C20.4275 3.59234 20.5633 3.56685 20.7077 3.54987L17.0727 7.23585C16.9284 7.25285 16.784 7.27832 16.6566 7.30379Z" fill="#7C8584"/>
<path d="M17.0733 7.23575L20.7083 3.54977C20.8697 3.53278 21.0396 3.51581 21.2179 3.51581L17.5829 7.20178C17.413 7.21027 17.2347 7.21877 17.0733 7.23575Z" fill="#808988"/>
<path d="M17.5914 7.20178L21.2263 3.51581C21.2943 3.51581 21.3623 3.51581 21.4302 3.51581L17.7952 7.20178C17.7272 7.20178 17.6594 7.20178 17.5914 7.20178Z" fill="#858E8D"/>
<path d="M14.0919 6.78558L17.7268 3.0996C17.7524 3.07411 17.7863 3.04017 17.8119 3.01468C18.109 2.72592 18.4573 2.4966 18.848 2.30975L15.2129 5.99571C14.8138 6.17407 14.4655 6.41189 14.1768 6.70065C14.1428 6.73463 14.1173 6.76011 14.0919 6.78558Z" fill="#2A3D34"/>
<path d="M15.2133 6.00423L18.8484 2.31827C19.0182 2.24183 19.1965 2.1739 19.3919 2.11444L15.7569 5.80041C15.5701 5.85137 15.3833 5.9193 15.2133 6.00423Z" fill="#2C4036"/>
<path d="M15.7568 5.79213L19.3917 2.10616C19.5617 2.0552 19.74 2.00425 19.9183 1.97028L16.2834 5.65624C16.1049 5.6987 15.9266 5.74118 15.7568 5.79213Z" fill="#2D4238"/>
<path d="M16.2908 5.65634L19.9259 1.97038C20.1043 1.9364 20.2996 1.90243 20.495 1.88544L16.8599 5.57141C16.6561 5.58839 16.4693 5.62237 16.2908 5.65634Z" fill="#2F443A"/>
<path d="M16.8519 5.57161L20.487 1.88565C20.6907 1.86017 20.9116 1.85169 21.1324 1.8432L17.4974 5.52916C17.2765 5.52916 17.0643 5.54614 16.8519 5.57161Z" fill="#31473C"/>
<path d="M17.498 5.52916L21.1331 1.8432C21.218 1.8432 21.2944 1.8432 21.3793 1.8432L17.7444 5.52916C17.6595 5.52067 17.5831 5.52067 17.498 5.52916Z" fill="#32493E"/>
<path d="M26.8653 18.2262L30.5003 14.5401L32.3942 12.6462L28.7676 16.3323L26.8653 18.2262Z" fill="#6B7372"/>
<path d="M24.7588 10.7355L28.3853 7.04102L16.0195 75.0616L12.3929 78.7476L24.7588 10.7355Z" fill="#32483D"/>
<path d="M16.8101 10.7355L20.4365 7.04102H28.3861L24.7595 10.7355H16.8101Z" fill="#344B40"/>
<path d="M49.1845 53.1918L52.8196 49.5058C53.6943 49.3275 54.5521 49.1067 55.4014 48.8434L51.7664 52.5294C50.9172 52.7927 50.0593 53.0134 49.1845 53.1918Z" fill="#78807F"/>
<path d="M51.7675 52.5294L55.4024 48.8434C56.4471 48.5121 57.4747 48.1214 58.4769 47.6628L54.8419 51.3488C53.8397 51.8075 52.812 52.1982 51.7675 52.5294Z" fill="#747C7B"/>
<path d="M54.8334 51.3489L58.4684 47.663C61.4496 46.2956 64.2097 44.3422 66.7407 41.8112L63.1057 45.4973C60.5832 48.0196 57.8145 49.973 54.8334 51.3489Z" fill="#6F7776"/>
<path d="M65.3646 13.9962L68.9996 10.3102C70.35 11.5757 71.4625 12.9516 72.3374 14.4548L68.7023 18.1408C67.8276 16.646 66.7149 15.2617 65.3646 13.9962Z" fill="#3E5A4C"/>
<path d="M68.6932 18.1413L72.3281 14.4553C72.7443 15.1773 73.1096 15.9161 73.4153 16.689L69.7803 20.3749C69.4745 19.602 69.1178 18.8547 68.6932 18.1413Z" fill="#3C574A"/>
<path d="M69.7896 20.3663L73.4245 16.6802C73.6538 17.2409 73.8492 17.8183 74.0106 18.4129L70.3755 22.0988C70.2057 21.5129 70.0103 20.9353 69.7896 20.3663Z" fill="#3A5548"/>
<path d="M70.3755 22.099L74.0105 18.413C74.1548 18.9396 74.2822 19.4747 74.3841 20.0182L70.7492 23.7041C70.6472 23.1606 70.5199 22.6255 70.3755 22.099Z" fill="#395346"/>
<path d="M70.7484 23.7038L74.3835 20.0178C74.4769 20.5359 74.5533 21.0709 74.6043 21.6059L70.9693 25.2919C70.9183 24.7569 70.8418 24.2218 70.7484 23.7038Z" fill="#375044"/>
<path d="M70.9701 25.2924L74.6052 21.6063C74.6476 22.048 74.673 22.4982 74.6901 22.9483C74.6901 23.0756 74.6986 23.2031 74.6986 23.3305L71.0635 27.0164C71.0635 26.889 71.0551 26.7617 71.0551 26.6342C71.0381 26.1841 71.0125 25.7339 70.9701 25.2924Z" fill="#354E42"/>
<path d="M71.0629 27.016L74.6979 23.3301C74.7064 24.001 74.6894 24.6635 74.647 25.3259L71.012 29.012C71.0544 28.3579 71.0714 27.687 71.0629 27.016Z" fill="#344C40"/>
<path d="M71.0124 29.0124L74.6474 25.3264C74.6049 25.9718 74.537 26.6173 74.4436 27.2543L70.8085 30.9402C70.9105 30.3033 70.9785 29.6663 71.0124 29.0124Z" fill="#32493E"/>
<path d="M70.8162 30.94L74.4512 27.254C74.3578 27.908 74.2303 28.5534 74.086 29.1904L70.451 32.8764C70.5954 32.2394 70.7142 31.5939 70.8162 30.94Z" fill="#31473C"/>
<path d="M70.4426 32.8762L74.0775 29.1903C73.9162 29.8782 73.7293 30.5577 73.5 31.2201L69.8651 34.9062C70.0943 34.2437 70.2812 33.5642 70.4426 32.8762Z" fill="#2F443A"/>
<path d="M69.8746 34.9146L73.5095 31.2286C73.2548 31.993 72.9575 32.7574 72.6178 33.5048L68.9828 37.1907C69.3226 36.4433 69.6197 35.679 69.8746 34.9146Z" fill="#2D4238"/>
<path d="M68.9823 37.1821L72.6173 33.4962C72.1841 34.4645 71.6746 35.4156 71.1055 36.3414L67.4706 40.0273C68.0396 39.1016 68.5492 38.1504 68.9823 37.1821Z" fill="#2C4036"/>
<path d="M67.4699 40.0277L71.1049 36.3418C69.9753 38.1762 68.5824 39.9428 66.9263 41.6245L63.2913 45.3104C64.9475 43.6289 66.3404 41.8707 67.4699 40.0277Z" fill="#2A3D34"/>
<path d="M63.1138 45.4969L66.7488 41.811C66.8083 41.7515 66.8678 41.6921 66.9272 41.6241L63.2922 45.3101C63.2328 45.3695 63.1733 45.429 63.1138 45.4969Z" fill="#6F7776"/>
<path d="M61.9078 44.2912L65.5428 40.6053C65.6022 40.5458 65.6617 40.4864 65.7212 40.4269L62.0861 44.1129C62.0267 44.1724 61.9673 44.2318 61.9078 44.2912Z" fill="#2A3D34"/>
<path d="M17.7943 7.20178L21.4294 3.51581H32.4703L28.8353 7.20178H17.7943Z" fill="#889291"/>
<path d="M28.8356 7.20178L32.4706 3.51581L30.5003 14.5397L26.8653 18.2257L28.8356 7.20178Z" fill="#848D8C"/>
<path d="M17.744 5.52019L21.3791 1.83423H34.4754L30.8403 5.52019H17.744Z" fill="#344B40"/>
<path d="M30.8407 5.52019L34.4756 1.83423L33.0829 9.64781L29.4478 13.3338L30.8407 5.52019Z" fill="#32493E"/>
<path d="M31.8932 17.394L35.5282 13.7079C35.6045 13.6315 35.6896 13.5466 35.766 13.4701C38.2969 10.9477 41.0656 8.99432 44.0466 7.62695L40.4116 11.3129C37.4306 12.6803 34.6704 14.6337 32.131 17.1562C32.0545 17.2325 31.9696 17.3089 31.8932 17.394Z" fill="#2A3D34"/>
<path d="M40.4114 11.3039L44.0465 7.61797C45.0487 7.15936 46.0763 6.76018 47.1294 6.42896L43.4943 10.1149C42.4413 10.4462 41.4136 10.8453 40.4114 11.3039Z" fill="#2C4036"/>
<path d="M43.4948 10.1236L47.1297 6.43762C47.979 6.17433 48.8368 5.9535 49.7117 5.76666L46.0766 9.45262C45.2018 9.63097 44.3355 9.8518 43.4948 10.1236Z" fill="#2D4238"/>
<path d="M46.076 9.45298L49.711 5.76702C50.5008 5.60565 51.3076 5.47825 52.123 5.38483L48.488 9.07079C47.6726 9.16422 46.8658 9.29163 46.076 9.45298Z" fill="#2F443A"/>
<path d="M48.488 9.0706L52.1231 5.38463C52.9129 5.2997 53.7029 5.24027 54.5181 5.21478L50.8831 8.90076C50.0763 8.92623 49.278 8.98567 48.488 9.0706Z" fill="#31473C"/>
<path d="M50.8837 8.90926L54.5187 5.22326C54.799 5.21477 55.0792 5.21478 55.3595 5.21478C55.8012 5.21478 56.2343 5.22326 56.659 5.24874L53.024 8.93473C52.5993 8.90926 52.1662 8.90075 51.7245 8.90075C51.4442 8.89226 51.164 8.90075 50.8837 8.90926Z" fill="#32493E"/>
<path d="M53.0237 8.92596L56.6587 5.23999C57.2787 5.27396 57.8817 5.32491 58.4763 5.40984L54.8412 9.09584C54.2467 9.0194 53.6352 8.95994 53.0237 8.92596Z" fill="#344C40"/>
<path d="M54.8334 9.09609L58.4684 5.4101C59.0374 5.48653 59.5981 5.57998 60.1416 5.69888L56.5066 9.38486C55.963 9.26595 55.4025 9.17253 54.8334 9.09609Z" fill="#354E42"/>
<path d="M56.5139 9.38487L60.149 5.69891C60.701 5.81782 61.2361 5.95369 61.7627 6.11506L58.1277 9.80103C57.6011 9.63966 57.0575 9.50378 56.5139 9.38487Z" fill="#375044"/>
<path d="M58.1285 9.80101L61.7635 6.11505C62.3155 6.28491 62.8591 6.48024 63.3857 6.69256L59.7506 10.3785C59.224 10.1662 58.6805 9.97087 58.1285 9.80101Z" fill="#395346"/>
<path d="M59.7509 10.3869L63.3858 6.70099C63.9889 6.94729 64.5748 7.22753 65.1439 7.53329L61.5089 11.2193C60.9399 10.905 60.3538 10.6332 59.7509 10.3869Z" fill="#3A5548"/>
<path d="M61.5087 11.2195L65.1436 7.53351C65.9165 7.94966 66.6639 8.4253 67.3773 8.96036L63.7423 12.6463C63.0289 12.1113 62.2816 11.6357 61.5087 11.2195Z" fill="#3C574A"/>
<path d="M63.7416 12.6459L67.3766 8.95996C67.9372 9.37612 68.4721 9.82623 68.9987 10.3188L65.3638 14.0049C64.8372 13.5122 64.3021 13.062 63.7416 12.6459Z" fill="#3E5A4C"/>
<path d="M65.3649 13.9966C68.9913 17.3938 70.9023 21.6488 71.0552 26.6342C71.2675 33.6579 68.6006 40.0022 63.1142 45.4886C57.6277 50.9667 51.0457 53.744 43.5463 53.744C38.0768 53.744 33.465 52.0028 29.8471 48.5801C26.2205 45.1405 24.3012 40.7921 24.1397 35.6368C23.9359 28.8594 26.6281 22.6339 32.1316 17.1475C37.6351 11.6695 44.2257 8.89227 51.725 8.89227C57.1521 8.89227 61.7383 10.6079 65.3649 13.9966ZM61.9081 44.2912C67.0635 39.136 69.5859 33.1992 69.3821 26.6427C69.2462 22.1244 67.505 18.277 64.2268 15.2111C60.94 12.1281 56.7529 10.5739 51.7675 10.5739C44.7183 10.5739 38.5184 13.1897 33.3206 18.3619C28.14 23.5257 25.609 29.335 25.8044 35.6453C25.9488 40.3334 27.6898 44.2912 30.9681 47.3996C34.255 50.5081 38.4675 52.0877 43.4868 52.0877C50.5445 52.0794 56.7359 49.4635 61.9081 44.2912Z" fill="#405D4F"/>
<path d="M73.1351 17.9289L76.7701 14.243C77.0418 14.9139 77.2712 15.6018 77.475 16.3152L73.84 20.0012C73.6361 19.2878 73.4068 18.5999 73.1351 17.9289Z" fill="#9AA5A3"/>
<path d="M73.8396 20.0012L77.4746 16.3152C77.653 16.9522 77.8058 17.6146 77.9333 18.2856L74.2982 21.9715C74.1708 21.3007 74.0179 20.6382 73.8396 20.0012Z" fill="#96A09F"/>
<path d="M74.2905 21.9713L77.9255 18.2854C78.0444 18.9393 78.1378 19.6103 78.2058 20.2983L74.5707 23.9842C74.5114 23.2964 74.4179 22.6253 74.2905 21.9713Z" fill="#929C9A"/>
<path d="M74.5795 23.984L78.2145 20.298C78.2739 20.8671 78.308 21.4446 78.3249 22.0391C78.3334 22.1835 78.3334 22.3193 78.3334 22.4637L74.6984 26.1496C74.6984 26.0053 74.6899 25.8694 74.6899 25.725C74.6645 25.1305 74.6304 24.553 74.5795 23.984Z" fill="#8D9796"/>
<path d="M74.6979 26.1418L78.3329 22.4559C78.3414 23.2117 78.3244 23.9591 78.2819 24.6979L74.647 28.3839C74.6894 27.645 74.7065 26.8977 74.6979 26.1418Z" fill="#899391"/>
<path d="M74.6385 28.3833L78.2734 24.6974C78.2224 25.4278 78.1461 26.1582 78.0441 26.8801L74.4092 30.566C74.5195 29.8441 74.596 29.1138 74.6385 28.3833Z" fill="#858E8D"/>
<path d="M74.4097 30.5662L78.0448 26.8802C77.9343 27.6191 77.7984 28.3579 77.6286 29.0884L73.9935 32.7743C74.1635 32.044 74.2993 31.3135 74.4097 30.5662Z" fill="#808988"/>
<path d="M73.993 32.7746L77.6279 29.0886C77.4411 29.8784 77.2203 30.6599 76.9655 31.4328L73.3305 35.1187C73.5852 34.3458 73.8061 33.5645 73.993 32.7746Z" fill="#7C8584"/>
<path d="M73.3308 35.1189L76.9658 31.4328C76.6686 32.3247 76.3289 33.2079 75.9297 34.0742L72.2947 37.7602C72.6938 36.8938 73.0335 36.0106 73.3308 35.1189Z" fill="#78807F"/>
<path d="M72.2943 37.76L75.9294 34.0739C75.4197 35.212 74.8253 36.3246 74.1543 37.4202L70.5193 41.1061C71.1903 40.0105 71.7848 38.898 72.2943 37.76Z" fill="#747C7B"/>
<path d="M70.5194 41.106L74.1544 37.42C72.787 39.6451 71.0799 41.7939 69.0416 43.8493L65.4066 47.5352C67.4364 45.4884 69.1435 43.3397 70.5194 41.106Z" fill="#6F7776"/>
<path d="M65.3989 47.5442C71.8026 41.0895 74.928 33.7345 74.6817 25.7256C74.4949 19.738 72.3885 14.8036 68.4223 11.0412L72.0573 7.35522C76.0236 11.1176 78.1383 16.0606 78.3167 22.0397C78.563 30.0571 75.4376 37.4036 69.0338 43.8583L65.3989 47.5442Z" fill="#CACFD6"/>
<path d="M65.3989 47.5442C71.8026 41.0895 74.928 33.7345 74.6817 25.7256C74.4949 19.738 72.3885 14.8036 68.4223 11.0412L72.0573 7.35522C76.0236 11.1176 78.1383 16.0606 78.3167 22.0397C78.563 30.0571 75.4376 37.4036 69.0338 43.8583L65.3989 47.5442ZM65.3989 47.5442L69.0338 43.8583C75.4376 37.4036 78.563 30.0486 78.3167 22.0397C78.1298 16.0521 76.0236 11.1176 72.0573 7.35522L68.4223 11.0412C72.3885 14.8036 74.5034 19.7466 74.6817 25.7256C74.928 33.7345 71.8026 41.081 65.3989 47.5442Z" fill="#BFBFBF"/>
<path d="M28.7681 16.3323L32.4031 12.6463C36.1316 8.93486 39.911 6.14064 43.6564 4.34862C43.7752 4.28916 43.8942 4.23822 44.0216 4.17877L40.3866 7.86473C40.2676 7.92418 40.1488 7.97515 40.0214 8.0346C36.276 9.82663 32.488 12.6208 28.7681 16.3323Z" fill="#6F7776"/>
<path d="M40.386 7.86418L44.021 4.17822C45.0147 3.7196 46.0509 3.32891 47.1125 2.9892L43.4775 6.67516C42.4073 7.01489 41.3797 7.40556 40.386 7.86418Z" fill="#747C7B"/>
<path d="M43.4686 6.68403L47.1036 2.99807C47.9953 2.7178 48.9041 2.48849 49.8383 2.29315L46.2033 5.97912C45.2777 6.16596 44.3604 6.40376 43.4686 6.68403Z" fill="#78807F"/>
<path d="M46.2045 5.97938L49.8396 2.29341C50.7058 2.11506 51.5977 1.97918 52.498 1.87726L48.8629 5.56323C47.9626 5.65665 47.0794 5.80102 46.2045 5.97938Z" fill="#7C8584"/>
<path d="M48.8623 5.55476L52.4973 1.86878C53.3806 1.76687 54.2893 1.70742 55.2066 1.68195L51.5716 5.36791C50.6543 5.39339 49.754 5.46134 48.8623 5.55476Z" fill="#808988"/>
<path d="M51.5721 5.3678L55.2071 1.68184C55.5298 1.67335 55.8525 1.66486 56.1754 1.66486C56.7444 1.66486 57.3049 1.68184 57.8569 1.70732L54.222 5.39328C53.67 5.3678 53.1093 5.35083 52.5403 5.35083C52.2176 5.35932 51.8949 5.35931 51.5721 5.3678Z" fill="#858E8D"/>
<path d="M54.2217 5.4016L57.8567 1.71564C58.6381 1.7581 59.4025 1.82605 60.1498 1.92796L56.5147 5.61393C55.7674 5.51201 55.003 5.44407 54.2217 5.4016Z" fill="#899391"/>
<path d="M56.5139 5.60509L60.149 1.91913C60.8539 2.01255 61.5334 2.13144 62.2042 2.27581L58.5693 5.96181C57.8983 5.81742 57.2104 5.69851 56.5139 5.60509Z" fill="#8D9796"/>
<path d="M58.5697 5.96205L62.2047 2.27606C62.8586 2.42044 63.4956 2.58183 64.1156 2.77717L60.4805 6.46313C59.8607 6.2678 59.2236 6.10644 58.5697 5.96205Z" fill="#929C9A"/>
<path d="M60.4803 6.46337L64.1152 2.7774C64.7523 2.97273 65.3808 3.19356 65.9838 3.43986L62.3488 7.12582C61.7457 6.87952 61.1172 6.65871 60.4803 6.46337Z" fill="#96A09F"/>
<path d="M62.3489 7.12585L65.984 3.43988C66.655 3.72015 67.3089 4.02591 67.9373 4.36562L64.3023 8.05158C63.6738 7.71187 63.0284 7.40612 62.3489 7.12585Z" fill="#9AA5A3"/>
<path d="M64.3024 8.05126L67.9374 4.3653C68.7782 4.81542 69.568 5.325 70.324 5.89403L66.6889 9.57999C65.9415 9.01096 65.1432 8.50139 64.3024 8.05126Z" fill="#9EA9A8"/>
<path d="M66.6977 9.5802L70.3328 5.89423C70.9357 6.34436 71.5133 6.82846 72.0568 7.34654L68.4218 11.0325C67.8782 10.5144 67.3008 10.0303 66.6977 9.5802Z" fill="#A3AEAD"/>
<path d="M68.4223 11.0322L72.0573 7.34625C73.4417 8.66267 74.6052 10.115 75.531 11.7117L71.896 15.3977C70.9702 13.8009 69.8151 12.3487 68.4223 11.0322Z" fill="#A3AEAD"/>
<path d="M71.8948 15.3975L75.5298 11.7116C76.0054 12.5184 76.4132 13.3677 76.7698 14.2426L73.1348 17.9285C72.7866 17.0537 72.3704 16.2044 71.8948 15.3975Z" fill="#9EA9A8"/>
<path d="M73.1351 17.9289L76.7701 14.243C77.0418 14.9139 77.2712 15.6018 77.475 16.3152L73.84 20.0012C73.6361 19.2878 73.4068 18.5999 73.1351 17.9289Z" fill="#9AA5A3"/>
<path d="M65.3989 47.5431C71.8026 41.0884 74.928 33.7334 74.6817 25.7245C74.4949 19.7369 72.3885 14.8025 68.4223 11.0401L72.0573 7.35413C76.0236 11.1165 78.1383 16.0595 78.3167 22.0386C78.563 30.056 75.4376 37.4025 69.0338 43.8572L65.3989 47.5431Z" fill="#CACFD6"/>
<path d="M65.3989 47.5431C71.8026 41.0884 74.928 33.7334 74.6817 25.7245C74.4949 19.7369 72.3885 14.8025 68.4223 11.0401L72.0573 7.35413C76.0236 11.1165 78.1383 16.0595 78.3167 22.0386C78.563 30.056 75.4376 37.4025 69.0338 43.8572L65.3989 47.5431ZM65.3989 47.5431L69.0338 43.8572C75.4376 37.4025 78.563 30.0475 78.3167 22.0386C78.1298 16.051 76.0236 11.1165 72.0573 7.35413L68.4223 11.0401C72.3885 14.8025 74.5034 19.7454 74.6817 25.7245C74.928 33.7334 71.8026 41.0799 65.3989 47.5431Z" fill="#BFBFBF"/>
<path d="M68.4221 11.0327C72.3884 14.7951 74.5031 19.738 74.6814 25.717C74.9278 33.7344 71.8023 41.081 65.3986 47.5357C58.9948 53.9988 51.3681 57.2856 42.7307 57.2856C33.8216 57.2856 27.4432 53.761 23.2222 46.508L22.0758 44.546L15.8248 78.7474H29.2947C30.4838 78.7474 30.8065 78.8494 30.8574 78.8664C31.0018 78.9258 31.1378 79.0533 31.2737 79.2486C31.4181 79.4609 31.4859 79.6816 31.4945 79.928C31.5115 80.5565 31.2906 81.0491 30.781 81.5077C30.263 81.9748 29.4222 82.2126 28.2927 82.2126H3.78175C2.49081 82.2126 2.09163 81.9579 2.0067 81.8729C1.85383 81.7455 1.6585 81.5162 1.6415 81.0321C1.62452 80.4036 1.83685 79.9025 2.32944 79.4438C2.83052 78.9767 3.64587 78.7474 4.77544 78.7474H12.3682L24.7341 10.7269H16.7845C15.4936 10.7269 15.0945 10.4721 15.001 10.3872C14.8567 10.2598 14.6528 10.022 14.6359 9.47843C14.6189 8.90091 14.8481 8.38284 15.3323 7.92421C15.8333 7.44011 16.6487 7.2023 17.7697 7.2023H28.8107L26.8403 18.2263L28.7427 16.3322C32.4711 12.6209 36.2506 9.82665 39.996 8.03462C43.7074 6.25959 47.92 5.35083 52.5147 5.35083C59.0968 5.35932 64.4474 7.27026 68.4221 11.0327ZM63.1139 45.4973C68.6005 40.0108 71.2757 33.6666 71.055 26.6428C70.9021 21.6489 68.9911 17.4024 65.3647 14.0053C61.7466 10.6165 57.1519 8.90091 51.7248 8.90091C44.2256 8.90091 37.6349 11.6781 32.1315 17.1561C26.6195 22.6426 23.9272 28.868 24.1395 35.6454C24.3009 40.8007 26.2118 45.1491 29.8469 48.5887C33.4648 52.0114 38.0765 53.7525 43.5461 53.7525C51.0454 53.7525 57.6275 50.9753 63.1139 45.4973Z" fill="#A9B4B3"/>
<path d="M29.4478 13.3339L33.0828 9.64795C36.3271 6.68388 39.6225 4.39925 42.8923 2.83653C43.0111 2.77709 43.1386 2.71764 43.2574 2.66669L39.6225 6.35266C39.5035 6.4121 39.3761 6.46305 39.2572 6.5225C35.9874 8.08521 32.6921 10.3698 29.4478 13.3339Z" fill="#2A3D34"/>
<path d="M39.6222 6.35281L43.2572 2.66684C44.3187 2.17424 45.4228 1.75808 46.5609 1.40137L42.9259 5.08735C41.7879 5.44406 40.6923 5.86022 39.6222 6.35281Z" fill="#2C4036"/>
<path d="M42.9252 5.08765L46.5601 1.40166C47.5028 1.1044 48.4711 0.858129 49.4562 0.654297L45.8213 4.34026C44.836 4.54409 43.8679 4.7904 42.9252 5.08765Z" fill="#2D4238"/>
<path d="M45.8215 4.33996L49.4566 0.653995C50.3738 0.467149 51.3081 0.32275 52.2594 0.212341L48.6242 3.89831C47.673 4.00022 46.7388 4.15311 45.8215 4.33996Z" fill="#2F443A"/>
<path d="M48.6243 3.89831L52.2594 0.212351C53.1935 0.110435 54.1448 0.0425079 55.1045 0.0170288L51.4694 3.703C50.5097 3.72847 49.5586 3.7964 48.6243 3.89831Z" fill="#31473C"/>
<path d="M51.4781 3.70297L55.113 0.0170026C55.4528 0.00850961 55.784 0 56.1238 0C56.7267 0 57.3213 0.0170015 57.8988 0.0424806L54.2638 3.72845C53.6778 3.69448 53.0918 3.68597 52.4888 3.68597C52.1491 3.68597 51.8093 3.68599 51.4781 3.70297Z" fill="#32493E"/>
<path d="M54.264 3.7282L57.899 0.0422363C58.7313 0.0847015 59.5382 0.16112 60.328 0.263038L56.6931 3.949C55.9031 3.84708 55.0963 3.77067 54.264 3.7282Z" fill="#344C40"/>
<path d="M56.7009 3.95764L60.336 0.271667C61.0834 0.373584 61.8138 0.500989 62.5272 0.653863L58.8921 4.33983C58.1703 4.17846 57.4399 4.05106 56.7009 3.95764Z" fill="#354E42"/>
<path d="M58.8848 4.33124L62.5197 0.645264C63.2161 0.798139 63.9041 0.976496 64.5666 1.18033L60.9316 4.86629C60.2692 4.66246 59.5897 4.4841 58.8848 4.33124Z" fill="#375044"/>
<path d="M60.9312 4.86669L64.5662 1.18073C65.2542 1.39305 65.925 1.63086 66.5791 1.89413L62.944 5.58011C62.2901 5.31682 61.6276 5.07902 60.9312 4.86669Z" fill="#395346"/>
<path d="M62.9442 5.57983L66.5793 1.89386C67.3096 2.19112 68.0146 2.52234 68.694 2.89603L65.059 6.582C64.3795 6.20831 63.6746 5.87708 62.9442 5.57983Z" fill="#3A5548"/>
<path d="M65.0586 6.58214L68.6937 2.89618C69.6023 3.38877 70.4686 3.94082 71.2925 4.55232L67.6574 8.23829C66.8337 7.6268 65.9674 7.07473 65.0586 6.58214Z" fill="#3C574A"/>
<path d="M67.6575 8.23845L71.2925 4.55249C71.955 5.04508 72.5835 5.58014 73.1865 6.14917L69.5515 9.83515C68.9484 9.26611 68.32 8.73104 67.6575 8.23845Z" fill="#3E5A4C"/>
<path d="M69.5514 9.83501C73.8658 13.9201 76.159 19.2707 76.3542 25.7169C76.6175 34.2014 73.3392 41.9471 66.6128 48.733C59.8863 55.519 51.8689 58.9586 42.7813 58.9586C34.127 58.9586 27.4684 55.6633 22.9502 49.1492L17.8458 77.0658H29.252C30.6448 77.0658 31.1545 77.2017 31.4431 77.3121C31.9187 77.499 32.3265 77.8471 32.6577 78.3397C32.9889 78.8322 33.1672 79.3588 33.1843 79.9279C33.2182 81.032 32.8021 81.9832 31.9443 82.7561C31.1204 83.512 29.9145 83.8857 28.3686 83.8857H3.85783C2.49895 83.8857 1.53924 83.6393 0.953226 83.1213C0.358715 82.5947 0.0274779 81.8728 0.00199884 81.032C-0.0319733 79.9364 0.367206 78.9766 1.19103 78.2039C2.00636 77.448 3.19538 77.0658 4.75809 77.0658H11.0005L22.7548 12.3999H16.8692C15.4933 12.3999 14.5421 12.1536 13.956 11.6355C13.353 11.109 13.0303 10.387 13.0048 9.48679C12.9708 8.44216 13.3701 7.49941 14.1938 6.70956C15.0092 5.9282 16.2067 5.52905 17.7609 5.52905H30.8572L29.4643 13.3426C32.7086 10.3786 36.0039 8.09392 39.2737 6.53121C43.2144 4.64576 47.6648 3.69455 52.5058 3.69455C59.4956 3.68605 65.2454 5.75836 69.5514 9.83501ZM65.3982 47.544C71.8019 41.0893 74.9274 33.7343 74.6812 25.7254C74.4943 19.7378 72.388 14.8034 68.4218 11.041C64.4471 7.2786 59.0964 5.36767 52.5399 5.36767C47.945 5.36767 43.7325 6.26794 40.0212 8.05147C36.2757 9.8435 32.4877 12.6377 28.7679 16.3492L26.8654 18.2431L28.8359 7.21915H17.7948C16.6738 7.21915 15.8499 7.45696 15.3574 7.94106C14.8733 8.40817 14.644 8.91774 14.6609 9.49527C14.6779 10.0473 14.8818 10.2766 15.0262 10.404C15.1111 10.489 15.5103 10.7437 16.8097 10.7437H24.7591L12.3933 78.7473H4.80057C3.67099 78.7473 2.84716 78.9766 2.35457 79.4437C1.86197 79.9024 1.64965 80.4035 1.66663 81.032C1.68363 81.5246 1.87895 81.7454 2.03183 81.8728C2.11676 81.9578 2.51594 82.2125 3.80688 82.2125H28.3177C29.4474 82.2125 30.2796 81.9747 30.8062 81.5076C31.3157 81.049 31.5365 80.5479 31.5196 79.9279C31.5111 79.6815 31.4347 79.4608 31.2988 79.2485C31.1628 79.0531 31.027 78.9257 30.8826 78.8663C30.8316 78.8408 30.5089 78.7473 29.3199 78.7473H15.8499L22.1008 44.5459L23.2474 46.5079C27.4769 53.7609 33.8552 57.2855 42.7559 57.2855C51.3677 57.2855 58.9946 54.0072 65.3982 47.544Z" fill="#405D4F"/>
<path d="M69.5511 9.83514L73.1861 6.14917C74.6978 7.5845 75.9633 9.17268 76.9824 10.9137L73.3475 14.5997C72.3368 12.8586 71.0713 11.2705 69.5511 9.83514Z" fill="#3E5A4C"/>
<path d="M73.3481 14.5992L76.9831 10.9133C77.4927 11.7881 77.9428 12.7053 78.325 13.6565L74.6901 17.3424C74.3079 16.3912 73.8577 15.4741 73.3481 14.5992Z" fill="#3C574A"/>
<path d="M74.6893 17.343L78.3242 13.657C78.613 14.3789 78.8677 15.1263 79.0801 15.8907L75.4451 19.5767C75.2328 18.8038 74.9779 18.0649 74.6893 17.343Z" fill="#3A5548"/>
<path d="M75.4456 19.5764L79.0805 15.8904C79.2759 16.5783 79.4373 17.2832 79.5732 18.0137L75.9381 21.6996C75.8022 20.9693 75.6409 20.2642 75.4456 19.5764Z" fill="#395346"/>
<path d="M75.9378 21.6912L79.5728 18.0053C79.7002 18.7102 79.8021 19.4321 79.8786 20.1626L76.2436 23.8485C76.1671 23.1181 76.0652 22.3961 75.9378 21.6912Z" fill="#375044"/>
<path d="M76.2352 23.8569L79.8703 20.1708C79.9297 20.7825 79.9722 21.4025 79.9891 22.0308C79.9977 22.1837 79.9977 22.3366 79.9977 22.481L76.3627 26.167C76.3627 26.0141 76.3542 25.8612 76.3542 25.7169C76.3372 25.0884 76.2947 24.4684 76.2352 23.8569Z" fill="#354E42"/>
<path d="M76.363 26.1755L79.9979 22.4896C80.0065 23.2879 79.9894 24.0862 79.9385 24.876L76.3035 28.5621C76.363 27.7721 76.3799 26.9738 76.363 26.1755Z" fill="#344C40"/>
<path d="M76.3119 28.562L79.947 24.8761C79.896 25.6574 79.8111 26.4303 79.7007 27.1947L76.0657 30.8806C76.176 30.1162 76.2609 29.3349 76.3119 28.562Z" fill="#32493E"/>
<path d="M76.0661 30.8806L79.7011 27.1947C79.5822 27.9846 79.4378 28.7659 79.2595 29.5388L75.6244 33.2248C75.8028 32.4519 75.9472 31.6706 76.0661 30.8806Z" fill="#31473C"/>
<path d="M75.6235 33.2245L79.2584 29.5386C79.0631 30.3708 78.8338 31.2032 78.562 32.0186L74.9271 35.7045C75.1903 34.8806 75.4281 34.0568 75.6235 33.2245Z" fill="#2F443A"/>
<path d="M74.9196 35.696L78.5546 32.0099C78.2404 32.9527 77.8751 33.8869 77.4675 34.8041L73.8325 38.4901C74.2487 37.5729 74.6053 36.6387 74.9196 35.696Z" fill="#2D4238"/>
<path d="M73.8312 38.4906L77.4663 34.8045C76.9312 36.0021 76.3027 37.1742 75.5978 38.3292L71.9628 42.0152C72.6677 40.8601 73.2877 39.6881 73.8312 38.4906Z" fill="#2C4036"/>
<path d="M71.9547 42.0152L75.5897 38.3293C74.1545 40.6649 72.3709 42.907 70.2476 45.0557L66.6127 48.7418C68.7444 46.593 70.5194 44.3423 71.9547 42.0152Z" fill="#2A3D34"/>
</g>
<defs>
<clipPath id="clip0_18:2">
<rect width="80" height="85.1613" fill="white"/>
</clipPath>
</defs>
</svg>
