<?xml version="1.0" encoding="utf-8"?>
<!-- Generator: Adobe Illustrator 24.3.0, SVG Export Plug-In . SVG Version: 6.00 Build 0)  -->
<svg version="1.1" id="Layer_1" xmlns="http://www.w3.org/2000/svg" xmlns:xlink="http://www.w3.org/1999/xlink" x="0px" y="0px"
	 viewBox="0 0 24 24" style="enable-background:new 0 0 24 24;" xml:space="preserve">
<path d="M12,0C8.8,0,5.8,1.3,3.5,3.5S0,8.8,0,12s1.3,6.2,3.5,8.5C5.8,22.7,8.8,24,12,24s6.2-1.3,8.5-3.5c2.3-2.3,3.5-5.3,3.5-8.5
	s-1.3-6.2-3.5-8.5C18.2,1.3,15.2,0,12,0L12,0z M8.8,4.2h7.1c1.9,0.1,3.1,1.5,3.2,2.9c0.1,1.6-1.1,3.3-3.2,3.4H14l2.7,1.5
	c1.9,1.1,2.7,3.5,2.1,5.2c-0.5,1.4-2.3,2.6-3.3,2.6H8.1c-4.2-0.2-4.2-6.1,0-6.3H10l-2.9-1.7C3.3,9.5,5,4.2,8.8,4.2z M8.8,5.2
	c-1,0-2.5,1.1-2.7,2.4c-0.2,1,0.3,2.7,1.4,3.3l4,2.3V10c0-0.3,0.2-0.5,0.5-0.5h4c1.1,0,2-1,2.1-2.1c0.1-1.1-0.9-2.3-2.2-2.3H8.8z
	 M12.5,10.8v3.1c0,0.4-0.1,0.5-0.5,0.5H8c-1,0-2,1.1-2,2.1c0,1.1,0.8,2.2,2,2.2h7c1.5,0,2.6-1.2,2.9-2.2c0.2-0.9,0.1-2.8-1.5-3.6
	L12.5,10.8z"/>
</svg>
