<svg width="143" height="106" viewBox="0 0 143 106" fill="none" xmlns="http://www.w3.org/2000/svg">
<path d="M51.6919 23.3699C49.8878 24.1936 48.5274 25.5971 47.6401 27.3971C47.2852 28.1598 48.0542 29.1972 48.8527 28.648C54.9452 24.5597 60.6236 18.0308 58.8787 9.97631C58.1097 6.46774 55.7437 3.63037 52.4905 2.37949C49.1189 1.0981 45.2741 1.64727 41.9025 2.65408C38.0578 3.81343 34.3313 5.61348 30.8118 7.56607C27.1445 9.61019 23.6546 12.173 21.052 15.5595C16.1425 21.9359 14.9299 30.6006 19.9577 37.2821C24.7785 43.6891 32.8229 45.7942 40.3646 44.3908C44.5643 43.5975 48.4387 41.767 52.0764 39.4483C55.6846 37.1601 59.2632 34.4753 63.4629 33.56C66.1246 32.9803 68.0174 33.9566 69.23 36.4584C70.3243 38.7161 70.7975 41.3399 70.8862 43.8721C71.0933 48.6316 69.999 53.3605 68.5202 57.8454C65.7993 66.1134 61.3334 74.0763 54.6199 79.568C47.581 85.3648 38.4422 88.0496 29.5992 85.7614C25.1334 84.602 20.9041 82.5884 16.7636 80.4833C13.1259 78.6222 9.48811 76.5171 6.50102 73.6187C4.99268 72.1542 3.69137 70.5373 2.65624 68.7067C2.06474 67.6999 0.526825 68.6152 1.11833 69.622C5.19971 76.6086 12.3865 80.4528 19.3367 83.7478C23.3885 85.6393 27.5586 87.4089 31.9653 88.1106C35.8988 88.7208 39.8914 88.4462 43.7362 87.3479C59.6477 82.802 69.9694 65.9304 72.2763 49.7604C73.1635 43.506 72.6016 30.0209 63.4333 31.6989C59.4702 32.4311 55.9508 34.7804 52.6088 36.9465C48.9119 39.3262 45.1558 41.4314 40.8674 42.4077C32.9117 44.2382 23.8617 41.645 19.8986 33.8041C15.5806 25.3225 21.2886 16.2002 28.1205 11.4102C31.5808 8.9695 35.4847 7.0169 39.4182 5.46093C42.9081 4.0575 46.9303 2.89815 50.6864 3.7219C54.6494 4.60667 57.1929 8.02371 57.4295 12.1425C57.6661 16.3527 55.7142 20.1359 52.9045 23.0648C51.4257 24.5903 49.7695 25.9022 47.995 27.092C48.4091 27.5191 48.7936 27.9158 49.2076 28.3429C49.947 26.7869 51.0708 25.6886 52.6088 24.9564C53.6439 24.4682 52.7271 22.9122 51.6919 23.3699Z" fill="#056DFF"/>
<path d="M96.4687 40.4856C96.7645 40.2415 97.0602 39.9975 97.3856 39.7534C98.1841 39.1127 97.2673 38.1059 96.5279 38.2279C93.6295 38.655 91.0565 40.0585 89.0454 42.2246C88.513 42.8043 88.8975 43.7806 89.6664 43.7806C92.4761 43.7806 95.1379 43.0789 97.5926 41.706C98.4503 41.2178 97.8588 39.6924 96.9124 40.028C95.0196 40.7297 93.2155 41.6144 91.5593 42.7738C90.6424 43.4145 89.1637 44.4213 89.696 45.8247C90.2284 47.1671 91.9142 46.9231 92.9789 46.7705C94.9013 46.4654 96.6758 45.7332 98.3024 44.6349C99.0714 44.1162 98.7165 43.0179 97.8588 42.9264C94.9308 42.6518 92.1212 44.3603 90.9382 47.1366C90.7016 47.7163 90.879 48.235 91.4705 48.479C93.8661 49.4553 96.5279 48.8146 98.332 46.9231C99.0122 46.2214 98.3024 45.2451 97.4743 45.3976C95.0787 45.7942 92.9789 46.9536 91.2931 48.7231C90.9086 49.1503 90.9678 49.852 91.4705 50.1571C93.6591 51.469 96.2913 51.4384 98.4503 50.035C99.1305 49.6079 98.9531 48.6316 98.2433 48.357C96.6758 47.8078 95.0787 49.3333 95.4336 51.0113C95.8181 52.8114 97.9771 53.1775 99.3375 52.3537C100.343 51.7741 99.4263 50.1876 98.4503 50.7672C98.2137 50.9808 97.9475 51.0113 97.6813 50.9198C97.2081 50.9198 97.2377 50.6452 97.7701 50.1265C97.7109 49.5774 97.6222 48.9977 97.563 48.4485C95.9364 49.5164 94.0436 49.5774 92.3578 48.5706C92.4169 49.0587 92.4761 49.5164 92.5352 50.0045C94.014 48.418 95.8181 47.4722 97.9475 47.1366C97.6517 46.618 97.3856 46.1298 97.0898 45.6112C95.6998 47.0756 93.807 47.4417 91.9733 46.679C92.1508 47.1366 92.3282 47.5638 92.5057 48.0214C93.4521 45.7637 95.5223 44.4823 97.8884 44.6959C97.7405 44.1162 97.5926 43.567 97.4447 42.9874C96.5279 43.5976 95.5519 44.1162 94.4872 44.4823C94.1027 44.6044 91.5593 45.2451 91.5001 45.062C91.4114 44.7569 93.9548 43.3535 94.2506 43.1704C95.2562 42.5907 96.3209 42.1331 97.3856 41.7365C97.149 41.1873 96.9419 40.6076 96.7053 40.0585C94.5168 41.2788 92.1508 41.889 89.6664 41.889C89.8735 42.4077 90.0805 42.9263 90.2875 43.445C92.1212 41.4924 94.3985 40.3026 97.0011 39.9059C96.7053 39.3873 96.4392 38.8991 96.1434 38.3805C95.8477 38.6245 95.5519 38.8686 95.2266 39.1127C94.3098 39.9364 95.5815 41.2178 96.4687 40.4856Z" fill="#056DFF"/>
<path d="M121.549 0.488078C119.537 5.33906 117.378 10.5561 118.177 15.9563C118.768 20.1361 121.253 24.3158 125.305 25.6277C129.563 27.0312 134.207 24.7125 136.957 21.3259C140.299 17.2377 141.246 11.7765 142.133 6.68146C142.281 5.73568 141.039 5.00345 140.506 5.97975C132.314 21.448 124.299 37.2518 119.744 54.3065C118.621 58.5168 117.704 62.7575 117.083 67.0899C116.432 71.4832 116.343 75.9681 115.633 80.3614C115.012 84.3276 113.682 88.4159 110.694 91.1617C107.293 94.3042 102.827 93.9075 98.5686 94.0906C89.7552 94.5177 81.3262 98.1178 74.7014 104.098C73.8437 104.891 75.1155 106.172 75.9436 105.379C82.1839 99.7043 90.2284 96.2873 98.539 95.8906C102.413 95.7076 106.524 96.0432 109.985 93.9075C113.001 92.0465 115.012 88.843 116.195 85.487C117.615 81.3987 117.763 76.9749 118.147 72.7036C118.561 68.2492 119.271 63.8254 120.247 59.4625C122.229 50.6454 125.216 42.1333 128.765 33.8652C132.728 24.7125 137.342 15.7732 142.015 6.89503C141.482 6.65096 140.92 6.43739 140.388 6.19332C139.649 10.5561 138.909 15.1325 136.484 18.9157C134.325 22.2717 130.184 25.0175 126.192 23.9802C122.465 22.9734 120.306 19.0072 119.863 15.2851C119.33 10.4951 121.312 5.73568 123.086 1.43387C123.5 0.335532 121.992 -0.610256 121.549 0.488078Z" fill="#056DFF"/>
</svg>
