<?xml version="1.0" encoding="utf-8"?>
<!-- Generator: Adobe Illustrator 24.3.0, SVG Export Plug-In . SVG Version: 6.00 Build 0)  -->
<svg version="1.1" id="Layer_1" xmlns="http://www.w3.org/2000/svg" xmlns:xlink="http://www.w3.org/1999/xlink" x="0px" y="0px"
	 viewBox="0 0 80 80" style="enable-background:new 0 0 80 80;" xml:space="preserve">
<style type="text/css">
	.st0{enable-background:new    ;}
	.st1{fill:#687D92;}
	.st2{fill:#E4E7EA;}
</style>
<g>
	<g>
		<g class="st0">
			<g>
				<polygon class="st1" points="-97.06,66.31 -93.6,64.57 -93.56,67.02 -97.02,68.76 				"/>
			</g>
			<g>
				<polygon class="st2" points="-97.06,66.31 -93.6,64.57 23.05,64.57 19.59,66.31 				"/>
			</g>
			<g>
				<polygon class="st1" points="-97.31,66.06 -93.85,64.32 22.49,64.32 19.03,66.06 				"/>
			</g>
			<g>
				<path class="st1" d="M18.51,64.29l3.46-1.74c0.11,0.68,0.41,1.31,0.89,1.82l-3.46,1.74C18.92,65.6,18.62,64.97,18.51,64.29z"/>
			</g>
			<g>
				<path class="st1" d="M13.86,57.69l3.46-1.74c0.15,0.91,0.66,1.76,1.41,2.3c0.6,0.44,1.3,0.67,2.02,0.67l-3.46,1.74
					c-0.72,0-1.42-0.23-2.02-0.67C14.51,59.44,14,58.6,13.86,57.69z"/>
			</g>
			<g>
				<polygon class="st1" points="17.28,60.67 20.74,58.92 21.97,62.54 18.51,64.29 				"/>
			</g>
			<g>
				<polygon class="st1" points="11.54,43.62 15,41.88 17.31,55.94 13.86,57.69 				"/>
			</g>
			<g>
				<polygon class="st2" points="27.57,66.09 31.03,64.35 30.71,64.58 27.25,66.32 				"/>
			</g>
			<g>
				<path class="st1" d="M14.82,36.58l3.46-1.74c-2.44,1.53-3.71,4.29-3.28,7.04l-3.46,1.74C11.11,40.87,12.38,38.12,14.82,36.58z"
					/>
			</g>
			<g>
				<polygon class="st2" points="28.35,59.16 31.81,57.41 32.43,61.04 28.97,62.78 				"/>
			</g>
			<g>
				<polygon class="st1" points="28.64,59.36 32.1,57.62 32.67,61 29.21,62.74 				"/>
			</g>
			<g>
				<path class="st2" d="M31.03,64.35c-0.06,0.03-0.14,0.07-0.2,0.1c-1.09,0.55-2.17,1.1-3.26,1.64c1.06-0.74,1.6-2.02,1.4-3.31
					l3.46-1.74C32.63,62.33,32.09,63.6,31.03,64.35z"/>
			</g>
			<g>
				<polygon class="st2" points="27.25,66.32 30.71,64.58 39.52,64.58 36.06,66.32 				"/>
			</g>
			<g>
				<path class="st1" d="M29.21,62.74L32.67,61c0.2,1.26-0.26,2.51-1.21,3.33L28,66.07C28.95,65.25,29.41,64.01,29.21,62.74z"/>
			</g>
			<g>
				<polygon class="st1" points="28.35,59.16 31.81,57.41 31.93,57.39 28.47,59.13 				"/>
			</g>
			<g>
				<polygon class="st1" points="28,66.07 31.46,64.33 39.27,64.33 35.81,66.07 				"/>
			</g>
			<g>
				<polygon class="st1" points="-97.02,68.76 -93.56,67.02 42.03,67.02 38.57,68.76 				"/>
			</g>
			<g>
				<polygon class="st1" points="16.66,22.79 20.12,21.05 18.28,34.84 14.82,36.58 				"/>
			</g>
			<g>
				<polygon class="st1" points="35.98,60.93 39.44,59.19 39.52,64.58 36.06,66.32 				"/>
			</g>
			<g>
				<polygon class="st2" points="38.49,63.37 41.95,61.63 42.03,67.02 38.57,68.76 				"/>
			</g>
			<g>
				<polygon class="st1" points="38.74,63.62 42.2,61.88 42.28,67.27 38.82,69.01 				"/>
			</g>
			<g>
				<path class="st1" d="M20.4,17.52l3.46-1.74c-2.01,1.01-3.43,2.94-3.75,5.27l-3.46,1.74C16.97,20.47,18.39,18.54,20.4,17.52z"/>
			</g>
			<g>
				<polygon class="st2" points="23.57,23.67 27.03,21.93 25.53,33.22 22.07,34.97 				"/>
			</g>
			<g>
				<polygon class="st1" points="23.57,23.67 27.03,21.93 27.11,21.92 23.66,23.66 				"/>
			</g>
			<g>
				<polygon class="st1" points="23.78,23.9 27.24,22.15 25.82,32.94 22.36,34.68 				"/>
			</g>
			<g>
				<path class="st2" d="M26.03,15.1c-1.15,0.58-2.31,1.16-3.46,1.74c-0.77,0.12-1.5,0.35-2.16,0.68l3.46-1.74
					C24.53,15.45,25.25,15.21,26.03,15.1z"/>
			</g>
			<g>
				<path class="st1" d="M20.3,17.3l3.46-1.74c0.69-0.35,1.44-0.59,2.24-0.71l-3.46,1.74C21.74,16.71,20.99,16.95,20.3,17.3z"/>
			</g>
			<g>
				<polygon class="st1" points="58.7,60.72 62.16,58.97 62.39,59.19 58.93,60.93 				"/>
			</g>
			<g>
				<polygon class="st2" points="35.98,60.93 39.44,59.19 62.39,59.19 58.93,60.93 				"/>
			</g>
			<g>
				<polygon class="st1" points="35.73,60.68 39.19,58.94 61.77,58.94 58.31,60.68 				"/>
			</g>
			<g>
				<path class="st1" d="M57.61,58.7l3.46-1.74c0.12,0.77,0.49,1.47,1.09,2.02l-3.46,1.74C58.1,60.17,57.73,59.47,57.61,58.7z"/>
			</g>
			<g>
				<polygon class="st1" points="28.47,59.13 31.93,57.39 60.53,53.27 57.07,55.02 				"/>
			</g>
			<g>
				<polygon class="st1" points="57.07,55.02 60.53,53.27 61.07,56.96 57.61,58.7 				"/>
			</g>
			<g>
				<path class="st1" d="M57.61,58.7c0.12,0.77,0.49,1.47,1.09,2.02l0.23,0.22H35.98l0.08,5.39h-8.82l0.32-0.23
					c1.06-0.74,1.6-2.02,1.4-3.31l-0.62-3.62l0.12-0.03l28.59-4.12L57.61,58.7z M35.73,60.68h22.58c-0.51-0.55-0.83-1.21-0.95-1.95
					l-0.5-3.44l-28.22,4.07l0.57,3.38c0.2,1.26-0.26,2.51-1.21,3.33h7.81L35.73,60.68"/>
			</g>
			<g>
				<path class="st2" d="M70.14,58.75c-0.1,0.07-0.21,0.14-0.32,0.2l-3.46,1.74c0.11-0.06,0.21-0.13,0.32-0.2
					C67.83,59.91,68.98,59.33,70.14,58.75z"/>
			</g>
			<g>
				<polygon class="st2" points="67.58,53.55 71.04,51.8 71.54,55.44 68.08,57.19 				"/>
			</g>
			<g>
				<polygon class="st1" points="67.75,53.77 71.21,52.03 71.78,55.41 68.32,57.15 				"/>
			</g>
			<g>
				<path class="st2" d="M70.14,58.75c-0.18,0.11-0.38,0.19-0.57,0.28s-0.38,0.19-0.57,0.28c-0.78,0.39-1.55,0.78-2.33,1.17
					c1.04-0.73,1.6-2.02,1.4-3.31l3.46-1.74C71.74,56.73,71.18,58.02,70.14,58.75z"/>
			</g>
			<g>
				<polygon class="st1" points="38.49,63.37 41.95,61.63 177.79,61.63 174.33,63.37 				"/>
			</g>
			<g>
				<polygon class="st2" points="174.29,60.93 177.75,59.19 177.79,61.63 174.33,63.37 				"/>
			</g>
			<g>
				<polygon class="st1" points="174.54,60.68 178,58.94 178.04,61.88 174.58,63.62 				"/>
			</g>
			<g>
				<polygon class="st2" points="55.31,30.23 58.77,28.49 58.94,28.46 55.48,30.21 				"/>
			</g>
			<g>
				<polygon class="st1" points="50.49,19.89 53.95,18.14 58.94,28.46 55.48,30.21 				"/>
			</g>
			<g>
				<polygon class="st1" points="23.66,23.66 27.11,21.92 53.91,18.06 50.45,19.81 				"/>
			</g>
			<g>
				<polygon class="st1" points="50.45,19.81 53.91,18.06 53.95,18.14 50.49,19.89 				"/>
			</g>
			<g>
				<path class="st1" d="M72.03,51.46l-3.46,1.74c-0.34,0.17-0.71,0.29-1.11,0.36l3.46-1.74C71.32,51.75,71.69,51.63,72.03,51.46z"
					/>
			</g>
			<g>
				<polygon class="st2" points="68.22,35.51 71.68,33.76 73.94,47.9 70.48,49.64 				"/>
			</g>
			<g>
				<polygon class="st1" points="68.47,35.47 71.93,33.73 74.18,47.87 70.72,49.61 				"/>
			</g>
			<g>
				<path class="st2" d="M73.94,47.9c0.24,1.48-0.57,2.91-1.88,3.57l-3.46,1.74c1.31-0.66,2.12-2.09,1.88-3.57
					C71.51,49.12,72.9,48.42,73.94,47.9z"/>
			</g>
			<g>
				<path class="st2" d="M66.36,60.69l107.93,0.24l0.04,2.44H38.49l0.08,5.39h-135.6l-0.04-2.45H19.59
					c-0.67-0.72-0.97-1.34-1.08-2.03l-0.55-3.69c-1.39,0.07-2.1-0.16-2.69-0.6c-0.75-0.55-1.26-1.39-1.41-2.3l-2.31-14.07
					c-0.43-2.75,0.84-5.51,3.23-7.01l1.89-13.82c0.41-3.09,2.8-5.49,5.91-5.95l26.71-3.77c0.39-0.05,0.8-0.08,1.17-0.08
					c2.73,0.04,5.17,1.59,6.37,4.05l6.12,12.7c2.75,0.7,4.85,3.01,5.28,5.76l2.25,14.14c0.29,1.83-1.01,3.58-2.89,3.9l0.5,3.64
					C68.3,58.6,67.6,60.01,66.36,60.69z M23.57,23.67l-1.49,11.3l33.24-4.73l0.17-0.03l-4.99-10.32l-0.04-0.08l-26.8,3.86
					L23.57,23.67 M35.98,60.93h22.95l-0.23-0.22c-0.59-0.55-0.97-1.25-1.09-2.02l-0.54-3.68l-28.59,4.12l-0.12,0.03l0.62,3.62
					c0.2,1.29-0.34,2.56-1.4,3.31l-0.32,0.23h8.82L35.98,60.93"/>
			</g>
			<g>
				<path class="st1" d="M55.31,30.23l0.15-0.07l-4.96-10.27l-0.04-0.08l-26.8,3.86l-0.09,0.01l-1.49,11.3L55.31,30.23l0.08-0.01
					L55.31,30.23z M22.36,34.68l1.42-10.79l26.52-3.82l4.8,9.93L22.36,34.68"/>
			</g>
			<g>
				<polygon class="st2" points="55.45,30.16 54.91,29.04 25.53,33.22 22.07,34.97 55.31,30.23 				"/>
			</g>
			<g>
				<polygon class="st1" points="22.36,34.68 55.1,30.01 54.54,28.84 25.82,32.94 				"/>
			</g>
			<g>
				<polygon class="st2" points="22.57,16.84 26.03,15.1 52.74,11.32 49.28,13.06 				"/>
			</g>
			<g>
				<path class="st1" d="M72.17,51.69l-3.46,1.74c1.41-0.71,2.27-2.24,2.01-3.83l3.46-1.74C74.43,49.46,73.57,50.99,72.17,51.69z"/>
			</g>
			<g>
				<path class="st2" d="M49.28,13.06l3.46-1.74c0.39-0.05,0.8-0.08,1.17-0.08c2.73,0.04,5.17,1.59,6.37,4.05l-3.46,1.74
					c-1.2-2.47-3.64-4.02-6.37-4.05C50.07,12.98,49.67,13.01,49.28,13.06z"/>
			</g>
			<g>
				<path class="st2" d="M62.94,29.74L66.4,28c2.75,0.7,4.85,3.01,5.28,5.76l-3.46,1.74C67.79,32.75,65.69,30.44,62.94,29.74z"/>
			</g>
			<g>
				<path class="st1" d="M174.58,63.62l-0.04-2.94H66.85c1.1-0.8,1.68-2.16,1.47-3.53l-0.57-3.38c1.95-0.39,3.28-2.23,2.98-4.16
					l-2.25-14.14c-0.44-2.83-2.6-5.22-5.35-5.94l-6.08-12.61c-1.24-2.56-3.77-4.16-6.72-4.2c-0.36,0-0.72,0.03-1.08,0.08l-26.7,3.77
					c-3.23,0.49-5.69,2.97-6.13,6.17l-1.82,13.67c-2.44,1.57-3.74,4.39-3.29,7.23l2.32,14.07c0.15,0.98,0.7,1.88,1.51,2.47
					c0.57,0.41,1.22,0.65,2.23,0.68l-0.07-0.21c-0.72,0-1.42-0.23-2.02-0.67c-0.75-0.55-1.26-1.39-1.41-2.3l-2.31-14.07
					c-0.43-2.75,0.84-5.5,3.28-7.04l1.84-13.79c0.41-3.09,2.8-5.49,5.91-5.95l26.71-3.77c0.39-0.05,0.8-0.08,1.17-0.08
					c2.73,0.04,5.17,1.59,6.37,4.05L63,29.76c2.69,0.68,4.79,2.99,5.22,5.75l2.25,14.14c0.29,1.83-1.01,3.58-3.02,3.92l0.62,3.62
					c0.22,1.42-0.48,2.82-2.15,3.75h108.36l0.04,2.44H38.49l0.08,5.39h-135.6l-0.04-2.45L19.4,66.11c-0.48-0.51-0.78-1.14-0.89-1.82
					l-0.43-1.28l0.2,1.32c0.1,0.65,0.36,1.24,0.76,1.74H-97.31l0.04,2.95H38.82l-0.08-5.39H174.58z M17.35,60.88l0.72,2.13
					l-0.32-2.13C17.62,60.88,17.48,60.88,17.35,60.88z"/>
			</g>
			<g>
				<polygon class="st2" points="66.36,60.69 69.82,58.95 177.75,59.19 174.29,60.93 				"/>
			</g>
			<g>
				<path class="st1" d="M68.32,57.15l3.46-1.74c0.21,1.37-0.38,2.73-1.47,3.53l-3.46,1.74C67.95,59.88,68.53,58.52,68.32,57.15z"/>
			</g>
			<g>
				<polygon class="st1" points="22.54,16.59 26,14.85 52.7,11.07 49.24,12.81 				"/>
			</g>
			<g>
				<polygon class="st2" points="56.82,17.04 60.28,15.29 66.4,28 62.94,29.74 				"/>
			</g>
			<g>
				<polygon class="st1" points="57.04,16.93 60.5,15.19 66.57,27.79 63.11,29.53 				"/>
			</g>
			<g>
				<path class="st1" d="M49.24,12.81l3.46-1.74c0.36-0.05,0.72-0.08,1.08-0.08c2.95,0.04,5.48,1.64,6.72,4.2l-3.46,1.74
					c-1.24-2.56-3.77-4.16-6.72-4.2C49.96,12.73,49.6,12.77,49.24,12.81z"/>
			</g>
			<g>
				<path class="st1" d="M63.11,29.53l3.46-1.74c2.76,0.72,4.91,3.1,5.35,5.94l-3.46,1.74C68.03,32.64,65.87,30.25,63.11,29.53z"/>
			</g>
			<g>
				<polygon class="st1" points="66.85,60.68 70.31,58.94 178,58.94 174.54,60.68 				"/>
			</g>
		</g>
	</g>
</g>
</svg>
