<?xml version="1.0" encoding="utf-8"?>
<!-- Generator: Adobe Illustrator 24.3.0, SVG Export Plug-In . SVG Version: 6.00 Build 0)  -->
<svg version="1.1" id="Layer_1" xmlns="http://www.w3.org/2000/svg" xmlns:xlink="http://www.w3.org/1999/xlink" x="0px" y="0px"
	 viewBox="0 0 24 24" style="enable-background:new 0 0 24 24;" xml:space="preserve">
<style type="text/css">
	.st0{fill-rule:evenodd;clip-rule:evenodd;}
</style>
<path class="st0" d="M24,12c0,6.6-5.4,12-12,12S0,18.6,0,12S5.4,0,12,0S24,5.4,24,12z M12.4,8.9c-1.2,0.5-3.5,1.5-7,3
	c-0.6,0.2-0.9,0.4-0.9,0.7c0,0.4,0.4,0.5,1,0.7c0.1,0,0.2,0.1,0.3,0.1c0.6,0.2,1.4,0.4,1.9,0.4c0.4,0,0.8-0.2,1.3-0.5
	c3.3-2.2,5-3.3,5.1-3.3c0.1,0,0.2,0,0.2,0c0.1,0.1,0.1,0.2,0.1,0.2c0,0.2-1.8,1.9-2.8,2.7c-0.3,0.3-0.5,0.5-0.5,0.5
	c-0.1,0.1-0.2,0.2-0.3,0.3c-0.6,0.5-1,1,0,1.6c0.5,0.3,0.9,0.6,1.3,0.9c0.4,0.3,0.9,0.6,1.4,0.9c0.1,0.1,0.3,0.2,0.4,0.3
	c0.5,0.4,0.9,0.7,1.5,0.6c0.3,0,0.7-0.3,0.8-1.2c0.4-2.1,1.2-6.7,1.4-8.6c0-0.2,0-0.3,0-0.5c0-0.1-0.1-0.2-0.2-0.3
	c-0.1-0.1-0.4-0.1-0.5-0.1C16.5,7.2,15.8,7.5,12.4,8.9L12.4,8.9z"/>
</svg>
