<?xml version="1.0" encoding="utf-8"?>
<!-- Generator: Adobe Illustrator 24.3.0, SVG Export Plug-In . SVG Version: 6.00 Build 0)  -->
<svg version="1.1" id="Layer_1" xmlns="http://www.w3.org/2000/svg" xmlns:xlink="http://www.w3.org/1999/xlink" x="0px" y="0px"
	 viewBox="0 0 24 24" style="enable-background:new 0 0 24 24;" xml:space="preserve">
<style type="text/css">
	.st0{fill:#D4BEC8;}
</style>
<path d="M12,0C8.8,0,5.8,1.3,3.5,3.5C1.3,5.8,0,8.8,0,12s1.3,6.2,3.5,8.5C5.8,22.7,8.8,24,12,24s6.2-1.3,8.5-3.5
	c2.3-2.3,3.5-5.3,3.5-8.5s-1.3-6.2-3.5-8.5C18.2,1.3,15.2,0,12,0L12,0z M12,3.7c3.9,0,7.1,2.8,7.1,6.3s-3.2,6.3-7.1,6.3
	c-1.1,0-2.1-0.2-3.1-0.6l-3.6,0.9l0.8-3c-0.8-1-1.2-2.2-1.2-3.5C4.9,6.5,8.1,3.7,12,3.7z M12,6.7c-0.3,0-0.5,0.1-0.8,0.2
	C11,7,10.7,7.1,10.5,7.3c-0.2,0.2-0.3,0.4-0.4,0.7C10,8.1,10,8.4,10,8.7v0.8H9.9H9.8c0,0-0.1,0-0.1,0.1L9.6,9.7v0.1v2.8
	c0,0.2,0.1,0.3,0.3,0.3h4.2c0.2,0,0.3-0.1,0.3-0.3V9.8c0-0.1,0-0.2-0.1-0.2c-0.1-0.1-0.1-0.1-0.2-0.1H14V8.7c0-0.3-0.1-0.5-0.2-0.8
	c-0.1-0.2-0.3-0.5-0.4-0.7C13.2,7,13,6.9,12.7,6.8C12.5,6.7,12.3,6.7,12,6.7L12,6.7z M12,7.5c0.7,0,1.2,0.5,1.2,1.2v0.8h-2.4V8.7
	C10.8,8,11.3,7.5,12,7.5z"/>
<path class="st0" d="M7.6,20.3c0.7,0,1.2-0.5,1.2-1.2s-0.5-1.2-1.2-1.2s-1.2,0.5-1.2,1.2C6.4,19.7,7,20.3,7.6,20.3z"/>
<path class="st0" d="M12,20.3c0.7,0,1.2-0.5,1.2-1.2s-0.5-1.2-1.2-1.2s-1.2,0.5-1.2,1.2C10.8,19.7,11.3,20.3,12,20.3z"/>
<path class="st0" d="M16.4,20.3c0.7,0,1.2-0.5,1.2-1.2s-0.5-1.2-1.2-1.2c-0.7,0-1.2,0.5-1.2,1.2C15.2,19.7,15.7,20.3,16.4,20.3z"/>
</svg>
